<svg xmlns="http://www.w3.org/2000/svg" xmlns:xlink="http://www.w3.org/1999/xlink" xmlns:lucid="lucid" width="1350.23" height="1051.61"><g transform="translate(-9.769588875126715 -14.394418191212594)" lucid:page-tab-id="HWEp-vi-RSFO"><path d="M0 0h1349.77v1068.7H0z" fill="#fff"/><path d="M449.77 223.4h320v199h-320z" stroke="#333" stroke-width="2" fill="#ffdda6"/><path d="M449.77 268.73h320" stroke="#333" stroke-width="2" fill="none"/><use xlink:href="#a" transform="matrix(1,0,0,1,457.7695888751267,231.3944181912126) translate(85.52469135802468 19.88888888888889)"/><use xlink:href="#b" transform="matrix(1,0,0,1,461.7695888751267,276.7277515245459) translate(8.055555555555552 29.888888888888886)"/><use xlink:href="#c" transform="matrix(1,0,0,1,461.7695888751267,276.7277515245459) translate(24.66666666666666 29.888888888888886)"/><use xlink:href="#d" transform="matrix(1,0,0,1,461.7695888751267,276.7277515245459) translate(99.22222222222223 29.888888888888886)"/><use xlink:href="#e" transform="matrix(1,0,0,1,461.7695888751267,276.7277515245459) translate(24.66666666666666 59.22222222222222)"/><use xlink:href="#f" transform="matrix(1,0,0,1,461.7695888751267,276.7277515245459) translate(127.74074074074076 59.22222222222222)"/><use xlink:href="#g" transform="matrix(1,0,0,1,461.7695888751267,276.7277515245459) translate(24.66666666666666 88.55555555555556)"/><use xlink:href="#h" transform="matrix(1,0,0,1,461.7695888751267,276.7277515245459) translate(115.31481481481482 88.55555555555556)"/><use xlink:href="#i" transform="matrix(1,0,0,1,461.7695888751267,276.7277515245459) translate(24.66666666666666 117.88888888888889)"/><path d="M29.77 263.4h360v314h-360z" stroke="#333" stroke-width="2" fill="#ffd9d9"/><path d="M29.77 338.6h360" stroke="#333" stroke-width="2" fill="none"/><use xlink:href="#j" transform="matrix(1,0,0,1,37.769588875126715,271.3944181912126) translate(91.93611111111115 20.133333333333333)"/><use xlink:href="#k" transform="matrix(1,0,0,1,37.769588875126715,271.3944181912126) translate(33.18148148148151 49.73333333333333)"/><use xlink:href="#l" transform="matrix(1,0,0,1,37.769588875126715,271.3944181912126) translate(135.7537037037037 49.73333333333333)"/><use xlink:href="#m" transform="matrix(1,0,0,1,37.769588875126715,271.3944181912126) translate(171.3148148148148 49.73333333333333)"/><use xlink:href="#n" transform="matrix(1,0,0,1,41.769588875126715,346.5944181912126) translate(8.016666666666666 27.63333333333335)"/><use xlink:href="#o" transform="matrix(1,0,0,1,41.769588875126715,346.5944181912126) translate(24.66666666666666 27.63333333333335)"/><use xlink:href="#p" transform="matrix(1,0,0,1,41.769588875126715,346.5944181912126) translate(151.97407407407403 27.63333333333335)"/><use xlink:href="#n" transform="matrix(1,0,0,1,41.769588875126715,346.5944181912126) translate(8.016666666666666 57.23333333333335)"/><use xlink:href="#q" transform="matrix(1,0,0,1,41.769588875126715,346.5944181912126) translate(24.66666666666666 57.23333333333335)"/><use xlink:href="#r" transform="matrix(1,0,0,1,41.769588875126715,346.5944181912126) translate(164.1703703703703 57.23333333333335)"/><use xlink:href="#s" transform="matrix(1,0,0,1,41.769588875126715,346.5944181912126) translate(24.66666666666666 86.83333333333334)"/><use xlink:href="#n" transform="matrix(1,0,0,1,41.769588875126715,346.5944181912126) translate(8.016666666666666 116.43333333333334)"/><use xlink:href="#t" transform="matrix(1,0,0,1,41.769588875126715,346.5944181912126) translate(24.66666666666666 116.43333333333334)"/><use xlink:href="#u" transform="matrix(1,0,0,1,41.769588875126715,346.5944181912126) translate(71.19074074074072 116.43333333333334)"/><use xlink:href="#v" transform="matrix(1,0,0,1,41.769588875126715,346.5944181912126) translate(24.66666666666666 146.03333333333333)"/><use xlink:href="#n" transform="matrix(1,0,0,1,41.769588875126715,346.5944181912126) translate(8.016666666666666 175.6333333333333)"/><use xlink:href="#w" transform="matrix(1,0,0,1,41.769588875126715,346.5944181912126) translate(24.66666666666666 175.6333333333333)"/><use xlink:href="#n" transform="matrix(1,0,0,1,41.769588875126715,346.5944181912126) translate(8.016666666666666 205.23333333333332)"/><use xlink:href="#x" transform="matrix(1,0,0,1,41.769588875126715,346.5944181912126) translate(24.66666666666666 205.23333333333332)"/><use xlink:href="#y" transform="matrix(1,0,0,1,41.769588875126715,346.5944181912126) translate(146.35555555555553 205.23333333333332)"/><use xlink:href="#z" transform="matrix(1,0,0,1,41.769588875126715,346.5944181912126) translate(199.66296296296292 205.23333333333332)"/><path d="M391.27 420.4h16.5a12 12 0 0 0 12-12V336.1a12 12 0 0 1 12-12h.62" stroke="#333" fill="none"/><path d="M391.28 420.9h-.5v-1h.5z" stroke="#333" stroke-width=".05" fill="#333"/><path d="M447.15 324.12l-14.26 4.64v-9.28z" stroke="#333" fill="#333"/><path d="M449.77 432.2h320v287h-320z" stroke="#333" stroke-width="2" fill="#ffdda6"/><path d="M449.77 477.53h320" stroke="#333" stroke-width="2" fill="none"/><use xlink:href="#A" transform="matrix(1,0,0,1,457.7695888751267,440.1997170129508) translate(74.04938271604937 19.88888888888889)"/><use xlink:href="#B" transform="matrix(1,0,0,1,461.7695888751267,485.53305034628414) translate(8.055555555555552 29.88888888888887)"/><use xlink:href="#C" transform="matrix(1,0,0,1,461.7695888751267,485.53305034628414) translate(24.66666666666666 29.88888888888887)"/><use xlink:href="#D" transform="matrix(1,0,0,1,461.7695888751267,485.53305034628414) translate(24.66666666666666 59.22222222222221)"/><use xlink:href="#E" transform="matrix(1,0,0,1,461.7695888751267,485.53305034628414) translate(24.66666666666666 88.55555555555554)"/><use xlink:href="#F" transform="matrix(1,0,0,1,461.7695888751267,485.53305034628414) translate(58.54938271604938 88.55555555555554)"/><use xlink:href="#G" transform="matrix(1,0,0,1,461.7695888751267,485.53305034628414) translate(82.51851851851852 88.55555555555554)"/><use xlink:href="#H" transform="matrix(1,0,0,1,461.7695888751267,485.53305034628414) translate(101.53086419753086 88.55555555555554)"/><use xlink:href="#I" transform="matrix(1,0,0,1,461.7695888751267,485.53305034628414) translate(130.6604938271605 88.55555555555554)"/><use xlink:href="#J" transform="matrix(1,0,0,1,461.7695888751267,485.53305034628414) translate(150.962962962963 88.55555555555554)"/><use xlink:href="#K" transform="matrix(1,0,0,1,461.7695888751267,485.53305034628414) translate(180.36419753086423 88.55555555555554)"/><use xlink:href="#b" transform="matrix(1,0,0,1,461.7695888751267,485.53305034628414) translate(8.055555555555552 117.88888888888887)"/><use xlink:href="#L" transform="matrix(1,0,0,1,461.7695888751267,485.53305034628414) translate(24.66666666666666 117.88888888888887)"/><use xlink:href="#d" transform="matrix(1,0,0,1,461.7695888751267,485.53305034628414) translate(115.45061728395062 117.88888888888887)"/><use xlink:href="#e" transform="matrix(1,0,0,1,461.7695888751267,485.53305034628414) translate(24.66666666666666 147.22222222222223)"/><use xlink:href="#f" transform="matrix(1,0,0,1,461.7695888751267,485.53305034628414) translate(127.74074074074076 147.22222222222223)"/><use xlink:href="#M" transform="matrix(1,0,0,1,461.7695888751267,485.53305034628414) translate(24.66666666666666 176.55555555555554)"/><use xlink:href="#N" transform="matrix(1,0,0,1,461.7695888751267,485.53305034628414) translate(212.82098765432104 176.55555555555554)"/><use xlink:href="#i" transform="matrix(1,0,0,1,461.7695888751267,485.53305034628414) translate(24.66666666666666 205.8888888888889)"/><path d="M449.77 758h320v288h-320z" stroke="#333" stroke-width="2" fill="#ffdda6"/><path d="M449.77 803.6h320" stroke="#333" stroke-width="2" fill="none"/><use xlink:href="#O" transform="matrix(1,0,0,1,457.7695888751267,766.0050158346892) translate(80.84351851851854 19.933333333333334)"/><use xlink:href="#B" transform="matrix(1,0,0,1,461.7695888751267,811.6050158346892) translate(8.055555555555552 29.85555555555554)"/><use xlink:href="#C" transform="matrix(1,0,0,1,461.7695888751267,811.6050158346892) translate(24.66666666666666 29.85555555555554)"/><use xlink:href="#P" transform="matrix(1,0,0,1,461.7695888751267,811.6050158346892) translate(24.66666666666666 59.188888888888876)"/><use xlink:href="#E" transform="matrix(1,0,0,1,461.7695888751267,811.6050158346892) translate(24.66666666666666 89.23333333333332)"/><use xlink:href="#F" transform="matrix(1,0,0,1,461.7695888751267,811.6050158346892) translate(58.54938271604938 89.23333333333332)"/><use xlink:href="#Q" transform="matrix(1,0,0,1,461.7695888751267,811.6050158346892) translate(82.51851851851852 89.23333333333332)"/><use xlink:href="#I" transform="matrix(1,0,0,1,461.7695888751267,811.6050158346892) translate(123.87037037037038 89.23333333333332)"/><use xlink:href="#J" transform="matrix(1,0,0,1,461.7695888751267,811.6050158346892) translate(144.17283950617286 89.23333333333332)"/><use xlink:href="#R" transform="matrix(1,0,0,1,461.7695888751267,811.6050158346892) translate(173.5740740740741 89.23333333333332)"/><use xlink:href="#b" transform="matrix(1,0,0,1,461.7695888751267,811.6050158346892) translate(8.055555555555552 118.9222222222222)"/><use xlink:href="#S" transform="matrix(1,0,0,1,461.7695888751267,811.6050158346892) translate(24.66666666666666 118.9222222222222)"/><use xlink:href="#d" transform="matrix(1,0,0,1,461.7695888751267,811.6050158346892) translate(106.08024691358025 118.9222222222222)"/><use xlink:href="#T" transform="matrix(1,0,0,1,461.7695888751267,811.6050158346892) translate(24.66666666666666 148.25555555555553)"/><use xlink:href="#U" transform="matrix(1,0,0,1,461.7695888751267,811.6050158346892) translate(24.66666666666666 177.5888888888889)"/><use xlink:href="#V" transform="matrix(1,0,0,1,461.7695888751267,811.6050158346892) translate(24.66666666666666 206.92222222222222)"/><use xlink:href="#i" transform="matrix(1,0,0,1,461.7695888751267,811.6050158346892) translate(129.0308641975309 206.92222222222222)"/><path d="M391.27 420.4h16.5a12 12 0 0 1 12 12v131.3a12 12 0 0 0 12 12h.62" stroke="#333" fill="none"/><path d="M391.28 420.9h-.5v-1h.5z" stroke="#333" stroke-width=".05" fill="#333"/><path d="M447.15 575.7l-14.26 4.64v-9.28z" stroke="#333" fill="#333"/><path d="M809.77 237.9h320v171h-320z" stroke="#333" stroke-width="2" fill="#fff7a1"/><path d="M809.77 283.5h320" stroke="#333" stroke-width="2" fill="none"/><g><use xlink:href="#W" transform="matrix(1,0,0,1,817.7695888751267,245.8944181912126) translate(46.61851851851857 19.933333333333334)"/></g><g><use xlink:href="#n" transform="matrix(1,0,0,1,821.7695888751267,291.4944181912126) translate(8.016666666666666 30.33333333333334)"/><use xlink:href="#X" transform="matrix(1,0,0,1,821.7695888751267,291.4944181912126) translate(24.66666666666666 30.33333333333334)"/><use xlink:href="#Y" transform="matrix(1,0,0,1,821.7695888751267,291.4944181912126) translate(99.89999999999998 30.33333333333334)"/><use xlink:href="#n" transform="matrix(1,0,0,1,821.7695888751267,291.4944181912126) translate(8.016666666666666 59.93333333333334)"/><use xlink:href="#Z" transform="matrix(1,0,0,1,821.7695888751267,291.4944181912126) translate(24.66666666666666 59.93333333333334)"/><use xlink:href="#aa" transform="matrix(1,0,0,1,821.7695888751267,291.4944181912126) translate(192.87962962962953 59.93333333333334)"/><use xlink:href="#ab" transform="matrix(1,0,0,1,821.7695888751267,291.4944181912126) translate(24.66666666666666 89.53333333333333)"/><use xlink:href="#ac" transform="matrix(1,0,0,1,821.7695888751267,291.4944181912126) translate(102.64074074074071 89.53333333333333)"/></g><path d="M809.77 489.4h320v171h-320z" stroke="#333" stroke-width="2" fill="#fff7a1"/><path d="M809.77 535h320" stroke="#333" stroke-width="2" fill="none"/><g><use xlink:href="#ad" transform="matrix(1,0,0,1,817.7695888751267,497.3944181912126) translate(35.038888888888934 19.933333333333334)"/></g><g><use xlink:href="#n" transform="matrix(1,0,0,1,821.7695888751267,542.9944181912126) translate(8.016666666666666 30.33333333333334)"/><use xlink:href="#ae" transform="matrix(1,0,0,1,821.7695888751267,542.9944181912126) translate(24.66666666666666 30.33333333333334)"/><use xlink:href="#Y" transform="matrix(1,0,0,1,821.7695888751267,542.9944181912126) translate(139.43518518518516 30.33333333333334)"/><use xlink:href="#n" transform="matrix(1,0,0,1,821.7695888751267,542.9944181912126) translate(8.016666666666666 59.93333333333334)"/><use xlink:href="#Z" transform="matrix(1,0,0,1,821.7695888751267,542.9944181912126) translate(24.66666666666666 59.93333333333334)"/><use xlink:href="#aa" transform="matrix(1,0,0,1,821.7695888751267,542.9944181912126) translate(192.87962962962953 59.93333333333334)"/><use xlink:href="#ab" transform="matrix(1,0,0,1,821.7695888751267,542.9944181912126) translate(24.66666666666666 89.53333333333333)"/><use xlink:href="#ac" transform="matrix(1,0,0,1,821.7695888751267,542.9944181912126) translate(102.64074074074071 89.53333333333333)"/></g><path d="M809.77 817h320v171h-320z" stroke="#333" stroke-width="2" fill="#fff7a1"/><path d="M809.77 862.6h320" stroke="#333" stroke-width="2" fill="none"/><g><use xlink:href="#af" transform="matrix(1,0,0,1,817.7695888751267,825.0050158346892) translate(42.541666666666714 19.933333333333334)"/></g><g><use xlink:href="#n" transform="matrix(1,0,0,1,821.7695888751267,870.6050158346892) translate(8.016666666666666 30.33333333333334)"/><use xlink:href="#ag" transform="matrix(1,0,0,1,821.7695888751267,870.6050158346892) translate(24.66666666666666 30.33333333333334)"/><use xlink:href="#Y" transform="matrix(1,0,0,1,821.7695888751267,870.6050158346892) translate(129.9796296296296 30.33333333333334)"/><use xlink:href="#n" transform="matrix(1,0,0,1,821.7695888751267,870.6050158346892) translate(8.016666666666666 59.93333333333334)"/><use xlink:href="#Z" transform="matrix(1,0,0,1,821.7695888751267,870.6050158346892) translate(24.66666666666666 59.93333333333334)"/><use xlink:href="#aa" transform="matrix(1,0,0,1,821.7695888751267,870.6050158346892) translate(192.87962962962953 59.93333333333334)"/><use xlink:href="#ab" transform="matrix(1,0,0,1,821.7695888751267,870.6050158346892) translate(24.66666666666666 89.53333333333333)"/><use xlink:href="#ac" transform="matrix(1,0,0,1,821.7695888751267,870.6050158346892) translate(102.64074074074071 89.53333333333333)"/></g><path d="M771.27 322.9h18.25a.25.25 0 0 1 .25.24.25.25 0 0 0 .25.25h2.37" stroke="#333" fill="none"/><path d="M771.28 323.4h-.5v-1h.5z" stroke="#333" stroke-width=".05" fill="#333"/><path d="M807.15 323.4l-14.26 4.63v-9.27z" stroke="#333" fill="#333"/><path d="M771.27 575.7h18.1a.4.4 0 0 0 .4-.4.4.4 0 0 1 .4-.4h2.22" stroke="#333" fill="none"/><path d="M771.28 576.2h-.5v-1h.5z" stroke="#333" stroke-width=".05" fill="#333"/><path d="M807.15 574.9l-14.26 4.63v-9.27z" stroke="#333" fill="#333"/><path d="M771.27 902h18.25a.25.25 0 0 1 .25.26.25.25 0 0 0 .25.25h2.37" stroke="#333" fill="none"/><path d="M771.28 902.5h-.5v-1h.5z" stroke="#333" stroke-width=".05" fill="#333"/><path d="M807.15 902.5l-14.26 4.64v-9.27z" stroke="#333" fill="#333"/><path d="M980 34.4h360v123H980z" stroke="#333" stroke-width="2" fill="#cfe4ff"/><path d="M980 80h360" stroke="#333" stroke-width="2" fill="none"/><g><use xlink:href="#ah" transform="matrix(1,0,0,1,988,42.394418191212594) translate(108.41481481481483 19.933333333333334)"/></g><g><use xlink:href="#ai" transform="matrix(1,0,0,1,992,87.99441819121259) translate(20.445370370370426 21.133333333333333)"/><use xlink:href="#aj" transform="matrix(1,0,0,1,992,87.99441819121259) translate(103.42129629629633 21.133333333333333)"/><use xlink:href="#ak" transform="matrix(1,0,0,1,992,87.99441819121259) translate(208.8712962962963 21.133333333333333)"/><use xlink:href="#al" transform="matrix(1,0,0,1,992,87.99441819121259) translate(244.4324074074074 21.133333333333333)"/><use xlink:href="#am" transform="matrix(1,0,0,1,992,87.99441819121259) translate(97.56296296296298 50.73333333333333)"/></g><path d="M29.77 34.4h360v153h-360z" stroke="#333" stroke-width="2" fill="#cfe4ff"/><path d="M29.77 80h360" stroke="#333" stroke-width="2" fill="none"/><g><use xlink:href="#an" transform="matrix(1,0,0,1,37.769588875126715,42.394418191212594) translate(124.82500000000002 19.933333333333334)"/></g><g><use xlink:href="#ao" transform="matrix(1,0,0,1,41.769588875126715,87.99441819121259) translate(61.28240740740743 21.33333333333334)"/><use xlink:href="#aj" transform="matrix(1,0,0,1,41.769588875126715,87.99441819121259) translate(140.55833333333334 21.33333333333334)"/><use xlink:href="#ap" transform="matrix(1,0,0,1,41.769588875126715,87.99441819121259) translate(246.00833333333333 21.33333333333334)"/><use xlink:href="#aq" transform="matrix(1,0,0,1,41.769588875126715,87.99441819121259) translate(22.94629629629634 50.93333333333334)"/><use xlink:href="#ar" transform="matrix(1,0,0,1,41.769588875126715,87.99441819121259) translate(176.15370370370368 50.93333333333334)"/><use xlink:href="#as" transform="matrix(1,0,0,1,41.769588875126715,87.99441819121259) translate(224.11666666666662 50.93333333333334)"/><use xlink:href="#at" transform="matrix(1,0,0,1,41.769588875126715,87.99441819121259) translate(110.51296296296297 80.53333333333333)"/></g><path d="M391.27 420.4h16.5a12 12 0 0 1 12 12V890a12 12 0 0 0 12 12h.62" stroke="#333" fill="none"/><path d="M391.28 420.9h-.5v-1h.5z" stroke="#333" stroke-width=".05" fill="#333"/><path d="M447.15 902l-14.26 4.64v-9.27z" stroke="#333" fill="#333"/><path d="M209.77 188.9v2.03m0 4.08v4.1m0 4.07v4.08m0 4.08v4.08m0 4.1v4.07m0 4.08v4.08m0 4.08v4.1m0 4.07V246" stroke="#333" fill="none"/><path d="M210.27 188.9h-1v-.5h1z" stroke="#333" stroke-width=".05" fill="#333"/><path d="M209.77 260.78l-4.64-14.27h9.27z" stroke="#333" fill="#333"/><path d="M1160 158.9v2.22m0 4.46v4.46m0 4.46v4.46m0 4.46v2.22l-.15 1.88-.05.23m-1.48 3.94l-.6 1-1.23 1.43-.9.76m-3.67 2.07l-.22.1-1.82.43h-2m-4 0h-4m-4 0h-4m-4.02.02h-4m-4 0h-4m-4 0h-4m-4 .02h-4m-4.02 0h-4m-4 0h-4m-4 .02h-4m-4 0h-4.02m-4 0l-4 .02m-4 0h-4m-4 0h-4m-4 0l-4.02.02m-4 0h-4m-4 0h-4m-4 0l-4 .02m-4 0h-4.02m-4 0h-4m-4 .02h-4m-4 0h-2l-1.9.15-.22.05m-3.94 1.47l-1 .62-1.44 1.22-.76.9m-2.07 3.66l-.1.22-.43 1.83-.02 1.6m-.04 3.18l-.04 3.18m-.03 3.2l-.03 1.58" stroke="#333" fill="none"/><path d="M1160.5 158.9h-1v-.5h1z" stroke="#333" stroke-width=".05" fill="#333"/><path d="M969.77 235.28L965.13 221h9.27z" stroke="#333" fill="#333"/><path d="M1160 158.9v1.98m0 3.98v3.98m0 3.97v4m0 3.97v3.98m0 3.97v3.98m0 3.98v3.98m0 3.97v3.98m0 4v3.96m0 3.98v3.98m0 3.98v3.97m0 3.98v3.98m0 3.98v3.98m0 3.98v3.98m0 3.97v4m0 3.97v3.98m0 3.97v3.98m0 3.98v3.98m0 3.97v3.98m0 4v3.96m0 3.98v3.98m0 3.98v3.97m0 3.98v3.98m0 3.98v3.98m0 3.98v3.98m0 3.97v4m0 3.97v3.98m0 3.97v3.98m0 3.98v3.98m0 3.97v3.98m0 4v3.96m0 3.98v3.98m0 3.98v3.97m0 3.98v3.98m0 3.98v2l-.15 1.87-.05.23m-1.48 3.94l-.6 1-1.23 1.44-.9.76m-3.67 2.08l-.22.1-1.82.43h-2m-4 0h-4m-4 0h-4m-4.02.02h-4m-4 0h-4m-4 0h-4m-4 .02h-4m-4.02 0h-4m-4 0h-4m-4 0h-4m-4 .02h-4.02m-4 0h-4m-4 0h-4m-4 .02h-4m-4 0h-4.02m-4 0h-4m-4 .02h-4m-4 0h-4m-4 0l-4.02.02m-4 0h-4m-4 0h-4m-4 0h-2l-1.9.16-.22.06m-3.94 1.47l-1 .62-1.44 1.2-.76.9m-2.07 3.67l-.1.22-.43 1.82v1.78m-.03 3.56l-.03 3.56m-.02 3.56l-.02 3.56m0 3.57l-.03 3.57m-.02 3.56V472" stroke="#333" fill="none"/><path d="M1160.5 158.9h-1v-.5h1z" stroke="#333" stroke-width=".05" fill="#333"/><path d="M969.77 486.78l-4.64-14.27h9.27z" stroke="#333" fill="#333"/><path d="M1160 158.9v2m0 4v4m0 4v4m0 4v4.02m0 4v4m0 4v4m0 4.02v4m0 4v4m0 4v4m0 4.02v4m0 4v4m0 4V249m0 4v4m0 4v4m0 4V273m0 4v4m0 4v4m0 4.02v4m0 4v4m0 4v4m0 4.02v4m0 4v4m0 4v4.02m0 4v4m0 4v4m0 4v4.02m0 4v4m0 4v4m0 4.02v4m0 4v4m0 4v4m0 4.02v4m0 4v4m0 4v4.02m0 4v4m0 4v4m0 4v4.02m0 4v4m0 4v4m0 4.02v4m0 4v4m0 4v4m0 4.02v4m0 4v4m0 4v4.02m0 4v4m0 4v4m0 4v4.02m0 4v4m0 4v4m0 4v4.02m0 4v4m0 4v4m0 4.02v4m0 4v4m0 4v4m0 4.02v4m0 4v4m0 4v4.02m0 4v4m0 4v4m0 4v4.02m0 4v4m0 4v4m0 4.02v4m0 4v4m0 4v4m0 4.02v4m0 4v4m0 4v2l-.15 1.9-.05.22m-1.48 3.94l-.6 1-1.23 1.44-.9.76m-3.67 2.08l-.22.1-1.82.43h-2m-4 0h-4m-4 0h-4m-4.02.02h-4m-4 0h-4m-4 0h-4m-4 .02h-4m-4.02 0h-4m-4 0h-4m-4 0h-4m-4 .02h-4.02m-4 0h-4m-4 0h-4m-4 .02h-4m-4 0h-4.02m-4 0h-4m-4 .02h-4m-4 0h-4m-4 0l-4.02.02m-4 0h-4m-4 0h-4m-4 0h-2l-1.9.16-.22.06m-3.94 1.47l-1 .62-1.44 1.2-.76.9m-2.07 3.67l-.1.22-.43 1.82v2.06m-.02 4.13v4.15m0 4.13l-.02 4.13m0 4.14l-.02 4.13m0 4.13l-.02 4.13m0 4.14l-.02 4.13m0 4.13l-.02 4.13m0 4.13l-.02 4.12m0 4.14v2.06" stroke="#333" fill="none"/><path d="M1160.5 158.9h-1v-.5h1z" stroke="#333" stroke-width=".05" fill="#333"/><path d="M969.77 814.4l-4.64-14.28h9.27z" stroke="#333" fill="#333"/><defs><path fill="#333" d="M24-248c93 1 206-16 204 79-1 75-69 88-152 82V0H24v-248zm52 121c47 0 100 7 100-41 0-47-54-39-100-39v80" id="au"/><path fill="#333" d="M25 0v-261h50V0H25" id="av"/><path fill="#333" d="M133-34C117-15 103 5 69 4 32 3 11-16 11-54c-1-60 55-63 116-61 1-26-3-47-28-47-18 1-26 9-28 27l-52-2c7-38 36-58 82-57s74 22 75 68l1 82c-1 14 12 18 25 15v27c-30 8-71 5-69-32zm-48 3c29 0 43-24 42-57-32 0-66-3-65 30 0 17 8 27 23 27" id="aw"/><path fill="#333" d="M135-194c87-1 58 113 63 194h-50c-7-57 23-157-34-157-59 0-34 97-39 157H25l-1-190h47c2 12-1 28 3 38 12-26 28-41 61-42" id="ax"/><path fill="#333" d="M135-150c-39-12-60 13-60 57V0H25l-1-190h47c2 13-1 29 3 40 6-28 27-53 61-41v41" id="ay"/><path fill="#333" d="M182-130c37 4 62 22 62 59C244 23 116-4 24 0v-248c84 5 203-23 205 63 0 31-19 50-47 55zM76-148c40-3 101 13 101-30 0-44-60-28-101-31v61zm0 110c48-3 116 14 116-37 0-48-69-32-116-35v72" id="az"/><path fill="#333" d="M137-138c1-29-70-34-71-4 15 46 118 7 119 86 1 83-164 76-172 9l43-7c4 19 20 25 44 25 33 8 57-30 24-41C81-84 22-81 20-136c-2-80 154-74 161-7" id="aA"/><path fill="#333" d="M185-48c-13 30-37 53-82 52C43 2 14-33 14-96s30-98 90-98c62 0 83 45 84 108H66c0 31 8 55 39 56 18 0 30-7 34-22zm-45-69c5-46-57-63-70-21-2 6-4 13-4 21h74" id="aB"/><g id="a"><use transform="matrix(0.06790123456790124,0,0,0.06790123456790124,0,0)" xlink:href="#au"/><use transform="matrix(0.06790123456790124,0,0,0.06790123456790124,16.296296296296298,0)" xlink:href="#av"/><use transform="matrix(0.06790123456790124,0,0,0.06790123456790124,23.08641975308642,0)" xlink:href="#aw"/><use transform="matrix(0.06790123456790124,0,0,0.06790123456790124,36.66666666666667,0)" xlink:href="#ax"/><use transform="matrix(0.06790123456790124,0,0,0.06790123456790124,51.537037037037045,0)" xlink:href="#aw"/><use transform="matrix(0.06790123456790124,0,0,0.06790123456790124,65.11728395061729,0)" xlink:href="#ay"/><use transform="matrix(0.06790123456790124,0,0,0.06790123456790124,74.62345679012347,0)" xlink:href="#az"/><use transform="matrix(0.06790123456790124,0,0,0.06790123456790124,92.20987654320989,0)" xlink:href="#aw"/><use transform="matrix(0.06790123456790124,0,0,0.06790123456790124,105.79012345679014,0)" xlink:href="#aA"/><use transform="matrix(0.06790123456790124,0,0,0.06790123456790124,119.3703703703704,0)" xlink:href="#aB"/></g><path fill="#333" d="M62-168c30 0 50 19 50 48S92-70 62-70c-29 0-48-21-48-50s20-48 48-48" id="aC"/><use transform="matrix(0.06790123456790124,0,0,0.06790123456790124,0,0)" xlink:href="#aC" id="b"/><path fill="#333" d="M115-194c55 1 70 41 70 98S169 2 115 4C84 4 66-9 55-30l1 105H24l-1-265h31l2 30c10-21 28-34 59-34zm-8 174c40 0 45-34 45-75s-6-73-45-74c-42 0-51 32-51 76 0 43 10 73 51 73" id="aD"/><path fill="#333" d="M24 0v-261h32V0H24" id="aE"/><path fill="#333" d="M141-36C126-15 110 5 73 4 37 3 15-17 15-53c-1-64 63-63 125-63 3-35-9-54-41-54-24 1-41 7-42 31l-33-3c5-37 33-52 76-52 45 0 72 20 72 64v82c-1 20 7 32 28 27v20c-31 9-61-2-59-35zM48-53c0 20 12 33 32 33 41-3 63-29 60-74-43 2-92-5-92 41" id="aF"/><path fill="#333" d="M117-194c89-4 53 116 60 194h-32v-121c0-31-8-49-39-48C34-167 62-67 57 0H25l-1-190h30c1 10-1 24 2 32 11-22 29-35 61-36" id="aG"/><path fill="#333" d="M114-163C36-179 61-72 57 0H25l-1-190h30c1 12-1 29 2 39 6-27 23-49 58-41v29" id="aH"/><g id="c"><use transform="matrix(0.06790123456790124,0,0,0.06790123456790124,0,0)" xlink:href="#aD"/><use transform="matrix(0.06790123456790124,0,0,0.06790123456790124,13.580246913580249,0)" xlink:href="#aE"/><use transform="matrix(0.06790123456790124,0,0,0.06790123456790124,18.944444444444446,0)" xlink:href="#aF"/><use transform="matrix(0.06790123456790124,0,0,0.06790123456790124,32.5246913580247,0)" xlink:href="#aG"/><use transform="matrix(0.06790123456790124,0,0,0.06790123456790124,46.104938271604944,0)" xlink:href="#aF"/><use transform="matrix(0.06790123456790124,0,0,0.06790123456790124,59.6851851851852,0)" xlink:href="#aH"/></g><path fill="#333" d="M177-190C167-65 218 103 67 71c-23-6-38-20-44-43l32-5c15 47 100 32 89-28v-30C133-14 115 1 83 1 29 1 15-40 15-95c0-56 16-97 71-98 29-1 48 16 59 35 1-10 0-23 2-32h30zM94-22c36 0 50-32 50-73 0-42-14-75-50-75-39 0-46 34-46 75s6 73 46 73" id="aI"/><path fill="#333" d="M100-194c63 0 86 42 84 106H49c0 40 14 67 53 68 26 1 43-12 49-29l28 8c-11 28-37 45-77 45C44 4 14-33 15-96c1-61 26-98 85-98zm52 81c6-60-76-77-97-28-3 7-6 17-6 28h103" id="aJ"/><path fill="#333" d="M100-194c62-1 85 37 85 99 1 63-27 99-86 99S16-35 15-95c0-66 28-99 85-99zM99-20c44 1 53-31 53-75 0-43-8-75-51-75s-53 32-53 75 10 74 51 75" id="aK"/><path fill="#333" d="M210-169c-67 3-38 105-44 169h-31v-121c0-29-5-50-35-48C34-165 62-65 56 0H25l-1-190h30c1 10-1 24 2 32 10-44 99-50 107 0 11-21 27-35 58-36 85-2 47 119 55 194h-31v-121c0-29-5-49-35-48" id="aL"/><path fill="#333" d="M59-47c-2 24 18 29 38 22v24C64 9 27 4 27-40v-127H5v-23h24l9-43h21v43h35v23H59v120" id="aM"/><path fill="#333" d="M24-231v-30h32v30H24zM24 0v-190h32V0H24" id="aN"/><path fill="#333" d="M96-169c-40 0-48 33-48 73s9 75 48 75c24 0 41-14 43-38l32 2c-6 37-31 61-74 61-59 0-76-41-82-99-10-93 101-131 147-64 4 7 5 14 7 22l-32 3c-4-21-16-35-41-35" id="aO"/><g id="d"><use transform="matrix(0.06790123456790124,0,0,0.06790123456790124,0,0)" xlink:href="#aI"/><use transform="matrix(0.06790123456790124,0,0,0.06790123456790124,13.580246913580249,0)" xlink:href="#aJ"/><use transform="matrix(0.06790123456790124,0,0,0.06790123456790124,27.160493827160497,0)" xlink:href="#aK"/><use transform="matrix(0.06790123456790124,0,0,0.06790123456790124,40.74074074074075,0)" xlink:href="#aL"/><use transform="matrix(0.06790123456790124,0,0,0.06790123456790124,61.043209876543216,0)" xlink:href="#aJ"/><use transform="matrix(0.06790123456790124,0,0,0.06790123456790124,74.62345679012347,0)" xlink:href="#aM"/><use transform="matrix(0.06790123456790124,0,0,0.06790123456790124,81.4135802469136,0)" xlink:href="#aH"/><use transform="matrix(0.06790123456790124,0,0,0.06790123456790124,89.49382716049385,0)" xlink:href="#aN"/><use transform="matrix(0.06790123456790124,0,0,0.06790123456790124,94.85802469135805,0)" xlink:href="#aO"/></g><path fill="#333" d="M135-143c-3-34-86-38-87 0 15 53 115 12 119 90S17 21 10-45l28-5c4 36 97 45 98 0-10-56-113-15-118-90-4-57 82-63 122-42 12 7 21 19 24 35" id="aP"/><g id="e"><use transform="matrix(0.06790123456790124,0,0,0.06790123456790124,0,0)" xlink:href="#aP"/><use transform="matrix(0.06790123456790124,0,0,0.06790123456790124,12.222222222222223,0)" xlink:href="#aJ"/><use transform="matrix(0.06790123456790124,0,0,0.06790123456790124,25.802469135802472,0)" xlink:href="#aE"/><use transform="matrix(0.06790123456790124,0,0,0.06790123456790124,31.16666666666667,0)" xlink:href="#aJ"/><use transform="matrix(0.06790123456790124,0,0,0.06790123456790124,44.74691358024692,0)" xlink:href="#aO"/><use transform="matrix(0.06790123456790124,0,0,0.06790123456790124,56.96913580246914,0)" xlink:href="#aM"/><use transform="matrix(0.06790123456790124,0,0,0.06790123456790124,63.75925925925927,0)" xlink:href="#aN"/><use transform="matrix(0.06790123456790124,0,0,0.06790123456790124,69.12345679012347,0)" xlink:href="#aK"/><use transform="matrix(0.06790123456790124,0,0,0.06790123456790124,82.70370370370371,0)" xlink:href="#aG"/></g><path fill="#333" d="M87 75C49 33 22-17 22-94c0-76 28-126 65-167h31c-38 41-64 92-64 168S80 34 118 75H87" id="aQ"/><path fill="#333" d="M85-194c31 0 48 13 60 33l-1-100h32l1 261h-30c-2-10 0-23-3-31C134-8 116 4 85 4 32 4 16-35 15-94c0-66 23-100 70-100zm9 24c-40 0-46 34-46 75 0 40 6 74 45 74 42 0 51-32 51-76 0-42-9-74-50-73" id="aR"/><path fill="#333" d="M68-38c1 34 0 65-14 84H32c9-13 17-26 17-46H33v-38h35" id="aS"/><g id="f"><use transform="matrix(0.06790123456790124,0,0,0.06790123456790124,0,0)" xlink:href="#aQ"/><use transform="matrix(0.06790123456790124,0,0,0.06790123456790124,8.080246913580249,0)" xlink:href="#aR"/><use transform="matrix(0.06790123456790124,0,0,0.06790123456790124,21.660493827160497,0)" xlink:href="#aN"/><use transform="matrix(0.06790123456790124,0,0,0.06790123456790124,27.024691358024697,0)" xlink:href="#aH"/><use transform="matrix(0.06790123456790124,0,0,0.06790123456790124,35.104938271604944,0)" xlink:href="#aJ"/><use transform="matrix(0.06790123456790124,0,0,0.06790123456790124,48.68518518518519,0)" xlink:href="#aO"/><use transform="matrix(0.06790123456790124,0,0,0.06790123456790124,60.90740740740741,0)" xlink:href="#aM"/><use transform="matrix(0.06790123456790124,0,0,0.06790123456790124,67.69753086419753,0)" xlink:href="#aN"/><use transform="matrix(0.06790123456790124,0,0,0.06790123456790124,73.06172839506173,0)" xlink:href="#aK"/><use transform="matrix(0.06790123456790124,0,0,0.06790123456790124,86.64197530864199,0)" xlink:href="#aG"/><use transform="matrix(0.06790123456790124,0,0,0.06790123456790124,100.22222222222224,0)" xlink:href="#aS"/></g><g id="g"><use transform="matrix(0.06790123456790124,0,0,0.06790123456790124,0,0)" xlink:href="#aL"/><use transform="matrix(0.06790123456790124,0,0,0.06790123456790124,20.302469135802472,0)" xlink:href="#aN"/><use transform="matrix(0.06790123456790124,0,0,0.06790123456790124,25.66666666666667,0)" xlink:href="#aG"/><use transform="matrix(0.06790123456790124,0,0,0.06790123456790124,39.24691358024692,0)" xlink:href="#aN"/><use transform="matrix(0.06790123456790124,0,0,0.06790123456790124,44.611111111111114,0)" xlink:href="#aL"/><use transform="matrix(0.06790123456790124,0,0,0.06790123456790124,64.91358024691358,0)" xlink:href="#aF"/><use transform="matrix(0.06790123456790124,0,0,0.06790123456790124,78.49382716049384,0)" xlink:href="#aE"/></g><path fill="#333" d="M0 4l72-265h28L28 4H0" id="aT"/><path fill="#333" d="M141 0L90-78 38 0H4l68-98-65-92h35l48 74 47-74h35l-64 92 68 98h-35" id="aU"/><g id="h"><use transform="matrix(0.06790123456790124,0,0,0.06790123456790124,0,0)" xlink:href="#aT"/><use transform="matrix(0.06790123456790124,0,0,0.06790123456790124,6.790123456790124,0)" xlink:href="#aL"/><use transform="matrix(0.06790123456790124,0,0,0.06790123456790124,27.092592592592595,0)" xlink:href="#aF"/><use transform="matrix(0.06790123456790124,0,0,0.06790123456790124,40.67283950617284,0)" xlink:href="#aU"/><use transform="matrix(0.06790123456790124,0,0,0.06790123456790124,52.89506172839506,0)" xlink:href="#aN"/><use transform="matrix(0.06790123456790124,0,0,0.06790123456790124,58.25925925925926,0)" xlink:href="#aL"/><use transform="matrix(0.06790123456790124,0,0,0.06790123456790124,78.56172839506173,0)" xlink:href="#aF"/><use transform="matrix(0.06790123456790124,0,0,0.06790123456790124,92.14197530864199,0)" xlink:href="#aE"/></g><path fill="#333" d="M33-261c38 41 65 92 65 168S71 34 33 75H2C39 34 66-17 66-93S39-220 2-261h31" id="aV"/><g id="i"><use transform="matrix(0.06790123456790124,0,0,0.06790123456790124,0,0)" xlink:href="#aD"/><use transform="matrix(0.06790123456790124,0,0,0.06790123456790124,13.580246913580249,0)" xlink:href="#aK"/><use transform="matrix(0.06790123456790124,0,0,0.06790123456790124,27.160493827160497,0)" xlink:href="#aP"/><use transform="matrix(0.06790123456790124,0,0,0.06790123456790124,39.38271604938272,0)" xlink:href="#aN"/><use transform="matrix(0.06790123456790124,0,0,0.06790123456790124,44.74691358024692,0)" xlink:href="#aM"/><use transform="matrix(0.06790123456790124,0,0,0.06790123456790124,51.537037037037045,0)" xlink:href="#aN"/><use transform="matrix(0.06790123456790124,0,0,0.06790123456790124,56.90123456790124,0)" xlink:href="#aK"/><use transform="matrix(0.06790123456790124,0,0,0.06790123456790124,70.4814814814815,0)" xlink:href="#aG"/><use transform="matrix(0.06790123456790124,0,0,0.06790123456790124,84.06172839506176,0)" xlink:href="#aV"/></g><path fill="#333" d="M199 0l-22-63H83L61 0H9l90-248h61L250 0h-51zm-33-102l-36-108c-10 38-24 72-36 108h72" id="aW"/><path fill="#333" d="M123 10C108 53 80 86 19 72V37c35 8 53-11 59-39L3-190h52l48 148c12-52 28-100 44-148h51" id="aX"/><path fill="#333" d="M25-224v-37h50v37H25zM25 0v-190h50V0H25" id="aY"/><g id="j"><use transform="matrix(0.0685185185185185,0,0,0.0685185185185185,0,0)" xlink:href="#aW"/><use transform="matrix(0.0685185185185185,0,0,0.0685185185185185,17.746296296296293,0)" xlink:href="#ax"/><use transform="matrix(0.0685185185185185,0,0,0.0685185185185185,32.751851851851846,0)" xlink:href="#aw"/><use transform="matrix(0.0685185185185185,0,0,0.0685185185185185,46.45555555555555,0)" xlink:href="#av"/><use transform="matrix(0.0685185185185185,0,0,0.0685185185185185,53.307407407407396,0)" xlink:href="#aX"/><use transform="matrix(0.0685185185185185,0,0,0.0685185185185185,67.01111111111109,0)" xlink:href="#aA"/><use transform="matrix(0.0685185185185185,0,0,0.0685185185185185,80.71481481481479,0)" xlink:href="#aY"/><use transform="matrix(0.0685185185185185,0,0,0.0685185185185185,87.56666666666663,0)" xlink:href="#aA"/><use transform="matrix(0.0685185185185185,0,0,0.0685185185185185,101.27037037037034,0)" xlink:href="#az"/><use transform="matrix(0.0685185185185185,0,0,0.0685185185185185,119.01666666666662,0)" xlink:href="#aw"/><use transform="matrix(0.0685185185185185,0,0,0.0685185185185185,132.72037037037032,0)" xlink:href="#aA"/><use transform="matrix(0.0685185185185185,0,0,0.0685185185185185,146.424074074074,0)" xlink:href="#aB"/></g><path fill="#333" d="M24 0v-248h52V0H24" id="aZ"/><path fill="#333" d="M135-194c53 0 70 44 70 98 0 56-19 98-73 100-31 1-45-17-59-34 3 33 2 69 2 105H25l-1-265h48c2 10 0 23 3 31 11-24 29-35 60-35zM114-30c33 0 39-31 40-66 0-38-9-64-40-64-56 0-55 130 0 130" id="ba"/><path fill="#333" d="M88-194c31-1 46 15 58 34l-1-101h50l1 261h-48c-2-10 0-23-3-31C134-8 116 4 84 4 32 4 16-41 15-95c0-56 19-97 73-99zm17 164c33 0 40-30 41-66 1-37-9-64-41-64s-38 30-39 65c0 43 13 65 39 65" id="bb"/><g id="k"><use transform="matrix(0.0685185185185185,0,0,0.0685185185185185,0,0)" xlink:href="#aZ"/><use transform="matrix(0.0685185185185185,0,0,0.0685185185185185,6.85185185185185,0)" xlink:href="#ax"/><use transform="matrix(0.0685185185185185,0,0,0.0685185185185185,21.857407407407404,0)" xlink:href="#aA"/><use transform="matrix(0.0685185185185185,0,0,0.0685185185185185,35.5611111111111,0)" xlink:href="#ba"/><use transform="matrix(0.0685185185185185,0,0,0.0685185185185185,50.566666666666656,0)" xlink:href="#aY"/><use transform="matrix(0.0685185185185185,0,0,0.0685185185185185,57.4185185185185,0)" xlink:href="#ay"/><use transform="matrix(0.0685185185185185,0,0,0.0685185185185185,67.01111111111109,0)" xlink:href="#aB"/><use transform="matrix(0.0685185185185185,0,0,0.0685185185185185,80.71481481481479,0)" xlink:href="#bb"/></g><path fill="#333" d="M135-194c52 0 70 43 70 98 0 56-19 99-73 100-30 1-46-15-58-35L72 0H24l1-261h50v104c11-23 29-37 60-37zM114-30c31 0 40-27 40-66 0-37-7-63-39-63s-41 28-41 65c0 36 8 64 40 64" id="bc"/><g id="l"><use transform="matrix(0.0685185185185185,0,0,0.0685185185185185,0,0)" xlink:href="#bc"/><use transform="matrix(0.0685185185185185,0,0,0.0685185185185185,15.005555555555553,0)" xlink:href="#aX"/></g><path fill="#333" d="M230 0l2-204L168 0h-37L68-204 70 0H24v-248h70l56 185 57-185h69V0h-46" id="bd"/><path fill="#333" d="M24-248c120-7 223 5 221 122C244-46 201 0 124 0H24v-248zM76-40c74 7 117-18 117-86 0-67-45-88-117-82v168" id="be"/><g id="m"><use transform="matrix(0.0685185185185185,0,0,0.0685185185185185,0,0)" xlink:href="#bd"/><use transform="matrix(0.0685185185185185,0,0,0.0685185185185185,20.487037037037034,0)" xlink:href="#be"/><use transform="matrix(0.0685185185185185,0,0,0.0685185185185185,38.23333333333333,0)" xlink:href="#aW"/><use transform="matrix(0.0685185185185185,0,0,0.0685185185185185,55.97962962962962,0)" xlink:href="#ax"/><use transform="matrix(0.0685185185185185,0,0,0.0685185185185185,70.98518518518517,0)" xlink:href="#aw"/><use transform="matrix(0.0685185185185185,0,0,0.0685185185185185,84.68888888888887,0)" xlink:href="#av"/><use transform="matrix(0.0685185185185185,0,0,0.0685185185185185,91.5407407407407,0)" xlink:href="#aX"/><use transform="matrix(0.0685185185185185,0,0,0.0685185185185185,105.24444444444441,0)" xlink:href="#aA"/><use transform="matrix(0.0685185185185185,0,0,0.0685185185185185,118.9481481481481,0)" xlink:href="#aY"/><use transform="matrix(0.0685185185185185,0,0,0.0685185185185185,125.79999999999997,0)" xlink:href="#aA"/></g><use transform="matrix(0.0685185185185185,0,0,0.0685185185185185,0,0)" xlink:href="#aC" id="n"/><path fill="#333" d="M115-194c53 0 69 39 70 98 0 66-23 100-70 100C84 3 66-7 56-30L54 0H23l1-261h32v101c10-23 28-34 59-34zm-8 174c40 0 45-34 45-75 0-40-5-75-45-74-42 0-51 32-51 76 0 43 10 73 51 73" id="bf"/><path fill="#333" d="M108 0H70L1-190h34L89-25l56-165h34" id="bg"/><g id="o"><use transform="matrix(0.0685185185185185,0,0,0.0685185185185185,0,0)" xlink:href="#aK"/><use transform="matrix(0.0685185185185185,0,0,0.0685185185185185,13.7037037037037,0)" xlink:href="#bf"/><use transform="matrix(0.0685185185185185,0,0,0.0685185185185185,27.4074074074074,0)" xlink:href="#aP"/><use transform="matrix(0.0685185185185185,0,0,0.0685185185185185,39.74074074074073,0)" xlink:href="#aJ"/><use transform="matrix(0.0685185185185185,0,0,0.0685185185185185,53.444444444444436,0)" xlink:href="#aH"/><use transform="matrix(0.0685185185185185,0,0,0.0685185185185185,61.598148148148134,0)" xlink:href="#bg"/><use transform="matrix(0.0685185185185185,0,0,0.0685185185185185,73.93148148148147,0)" xlink:href="#aF"/><use transform="matrix(0.0685185185185185,0,0,0.0685185185185185,87.63518518518516,0)" xlink:href="#bf"/><use transform="matrix(0.0685185185185185,0,0,0.0685185185185185,101.33888888888886,0)" xlink:href="#aE"/><use transform="matrix(0.0685185185185185,0,0,0.0685185185185185,106.75185185185181,0)" xlink:href="#aJ"/></g><g id="p"><use transform="matrix(0.0685185185185185,0,0,0.0685185185185185,0,0)" xlink:href="#aP"/><use transform="matrix(0.0685185185185185,0,0,0.0685185185185185,12.33333333333333,0)" xlink:href="#aM"/><use transform="matrix(0.0685185185185185,0,0,0.0685185185185185,19.185185185185176,0)" xlink:href="#aK"/><use transform="matrix(0.0685185185185185,0,0,0.0685185185185185,32.88888888888888,0)" xlink:href="#aH"/><use transform="matrix(0.0685185185185185,0,0,0.0685185185185185,41.042592592592584,0)" xlink:href="#aF"/><use transform="matrix(0.0685185185185185,0,0,0.0685185185185185,54.746296296296286,0)" xlink:href="#aI"/><use transform="matrix(0.0685185185185185,0,0,0.0685185185185185,68.44999999999999,0)" xlink:href="#aJ"/></g><g id="q"><use transform="matrix(0.0685185185185185,0,0,0.0685185185185185,0,0)" xlink:href="#aM"/><use transform="matrix(0.0685185185185185,0,0,0.0685185185185185,6.85185185185185,0)" xlink:href="#aH"/><use transform="matrix(0.0685185185185185,0,0,0.0685185185185185,15.005555555555553,0)" xlink:href="#aF"/><use transform="matrix(0.0685185185185185,0,0,0.0685185185185185,28.709259259259255,0)" xlink:href="#aG"/><use transform="matrix(0.0685185185185185,0,0,0.0685185185185185,42.41296296296296,0)" xlink:href="#aP"/><use transform="matrix(0.0685185185185185,0,0,0.0685185185185185,54.746296296296286,0)" xlink:href="#aE"/><use transform="matrix(0.0685185185185185,0,0,0.0685185185185185,60.15925925925925,0)" xlink:href="#aF"/><use transform="matrix(0.0685185185185185,0,0,0.0685185185185185,73.86296296296295,0)" xlink:href="#aM"/><use transform="matrix(0.0685185185185185,0,0,0.0685185185185185,80.7148148148148,0)" xlink:href="#aN"/><use transform="matrix(0.0685185185185185,0,0,0.0685185185185185,86.12777777777777,0)" xlink:href="#aK"/><use transform="matrix(0.0685185185185185,0,0,0.0685185185185185,99.83148148148146,0)" xlink:href="#aG"/><use transform="matrix(0.0685185185185185,0,0,0.0685185185185185,113.53518518518516,0)" xlink:href="#aF"/><use transform="matrix(0.0685185185185185,0,0,0.0685185185185185,127.23888888888885,0)" xlink:href="#aE"/></g><g id="r"><use transform="matrix(0.0685185185185185,0,0,0.0685185185185185,0,0)" xlink:href="#aO"/><use transform="matrix(0.0685185185185185,0,0,0.0685185185185185,12.33333333333333,0)" xlink:href="#aK"/><use transform="matrix(0.0685185185185185,0,0,0.0685185185185185,26.03703703703703,0)" xlink:href="#aK"/><use transform="matrix(0.0685185185185185,0,0,0.0685185185185185,39.74074074074073,0)" xlink:href="#aH"/><use transform="matrix(0.0685185185185185,0,0,0.0685185185185185,47.89444444444443,0)" xlink:href="#aR"/><use transform="matrix(0.0685185185185185,0,0,0.0685185185185185,61.598148148148134,0)" xlink:href="#aN"/><use transform="matrix(0.0685185185185185,0,0,0.0685185185185185,67.01111111111109,0)" xlink:href="#aG"/><use transform="matrix(0.0685185185185185,0,0,0.0685185185185185,80.71481481481479,0)" xlink:href="#aF"/><use transform="matrix(0.0685185185185185,0,0,0.0685185185185185,94.41851851851848,0)" xlink:href="#aM"/><use transform="matrix(0.0685185185185185,0,0,0.0685185185185185,101.27037037037034,0)" xlink:href="#aJ"/></g><path fill="#333" d="M101-234c-31-9-42 10-38 44h38v23H63V0H32v-167H5v-23h27c-7-52 17-82 69-68v24" id="bh"/><g id="s"><use transform="matrix(0.0685185185185185,0,0,0.0685185185185185,0,0)" xlink:href="#aM"/><use transform="matrix(0.0685185185185185,0,0,0.0685185185185185,6.85185185185185,0)" xlink:href="#aH"/><use transform="matrix(0.0685185185185185,0,0,0.0685185185185185,15.005555555555553,0)" xlink:href="#aF"/><use transform="matrix(0.0685185185185185,0,0,0.0685185185185185,28.709259259259255,0)" xlink:href="#aG"/><use transform="matrix(0.0685185185185185,0,0,0.0685185185185185,42.41296296296296,0)" xlink:href="#aP"/><use transform="matrix(0.0685185185185185,0,0,0.0685185185185185,54.746296296296286,0)" xlink:href="#bh"/><use transform="matrix(0.0685185185185185,0,0,0.0685185185185185,61.598148148148134,0)" xlink:href="#aK"/><use transform="matrix(0.0685185185185185,0,0,0.0685185185185185,75.30185185185184,0)" xlink:href="#aH"/><use transform="matrix(0.0685185185185185,0,0,0.0685185185185185,83.45555555555553,0)" xlink:href="#aL"/><use transform="matrix(0.0685185185185185,0,0,0.0685185185185185,103.94259259259258,0)" xlink:href="#aF"/><use transform="matrix(0.0685185185185185,0,0,0.0685185185185185,117.64629629629627,0)" xlink:href="#aM"/><use transform="matrix(0.0685185185185185,0,0,0.0685185185185185,124.4981481481481,0)" xlink:href="#aN"/><use transform="matrix(0.0685185185185185,0,0,0.0685185185185185,129.91111111111107,0)" xlink:href="#aK"/><use transform="matrix(0.0685185185185185,0,0,0.0685185185185185,143.61481481481476,0)" xlink:href="#aG"/></g><path fill="#333" d="M84 4C-5 8 30-112 23-190h32v120c0 31 7 50 39 49 72-2 45-101 50-169h31l1 190h-30c-1-10 1-25-2-33-11 22-28 36-60 37" id="bi"/><g id="t"><use transform="matrix(0.0685185185185185,0,0,0.0685185185185185,0,0)" xlink:href="#bi"/><use transform="matrix(0.0685185185185185,0,0,0.0685185185185185,13.7037037037037,0)" xlink:href="#aG"/><use transform="matrix(0.0685185185185185,0,0,0.0685185185185185,27.4074074074074,0)" xlink:href="#aN"/><use transform="matrix(0.0685185185185185,0,0,0.0685185185185185,32.82037037037036,0)" xlink:href="#aM"/></g><g id="u"><use transform="matrix(0.0685185185185185,0,0,0.0685185185185185,0,0)" xlink:href="#aO"/><use transform="matrix(0.0685185185185185,0,0,0.0685185185185185,12.33333333333333,0)" xlink:href="#aJ"/><use transform="matrix(0.0685185185185185,0,0,0.0685185185185185,26.03703703703703,0)" xlink:href="#aE"/><use transform="matrix(0.0685185185185185,0,0,0.0685185185185185,31.449999999999992,0)" xlink:href="#aE"/></g><path fill="#333" d="M206 0h-36l-40-164L89 0H53L-1-190h32L70-26l43-164h34l41 164 42-164h31" id="bj"/><g id="v"><use transform="matrix(0.0685185185185185,0,0,0.0685185185185185,0,0)" xlink:href="#bj"/><use transform="matrix(0.0685185185185185,0,0,0.0685185185185185,17.746296296296293,0)" xlink:href="#aH"/><use transform="matrix(0.0685185185185185,0,0,0.0685185185185185,25.899999999999995,0)" xlink:href="#aF"/><use transform="matrix(0.0685185185185185,0,0,0.0685185185185185,39.603703703703694,0)" xlink:href="#aD"/><use transform="matrix(0.0685185185185185,0,0,0.0685185185185185,53.307407407407396,0)" xlink:href="#aD"/><use transform="matrix(0.0685185185185185,0,0,0.0685185185185185,67.01111111111109,0)" xlink:href="#aN"/><use transform="matrix(0.0685185185185185,0,0,0.0685185185185185,72.42407407407406,0)" xlink:href="#aG"/><use transform="matrix(0.0685185185185185,0,0,0.0685185185185185,86.12777777777775,0)" xlink:href="#aI"/><use transform="matrix(0.0685185185185185,0,0,0.0685185185185185,99.83148148148145,0)" xlink:href="#aT"/><use transform="matrix(0.0685185185185185,0,0,0.0685185185185185,106.6833333333333,0)" xlink:href="#bi"/><use transform="matrix(0.0685185185185185,0,0,0.0685185185185185,120.38703703703699,0)" xlink:href="#aG"/><use transform="matrix(0.0685185185185185,0,0,0.0685185185185185,134.0907407407407,0)" xlink:href="#bj"/><use transform="matrix(0.0685185185185185,0,0,0.0685185185185185,151.837037037037,0)" xlink:href="#aH"/><use transform="matrix(0.0685185185185185,0,0,0.0685185185185185,159.9907407407407,0)" xlink:href="#aF"/><use transform="matrix(0.0685185185185185,0,0,0.0685185185185185,173.6944444444444,0)" xlink:href="#aD"/><use transform="matrix(0.0685185185185185,0,0,0.0685185185185185,187.3981481481481,0)" xlink:href="#aD"/><use transform="matrix(0.0685185185185185,0,0,0.0685185185185185,201.1018518518518,0)" xlink:href="#aN"/><use transform="matrix(0.0685185185185185,0,0,0.0685185185185185,206.51481481481474,0)" xlink:href="#aG"/><use transform="matrix(0.0685185185185185,0,0,0.0685185185185185,220.21851851851844,0)" xlink:href="#aI"/></g><path fill="#333" d="M16-82v-28h88v28H16" id="bk"/><path fill="#333" d="M106-169C34-169 62-67 57 0H25v-261h32l-1 103c12-21 28-36 61-36 89 0 53 116 60 194h-32v-121c2-32-8-49-39-48" id="bl"/><path fill="#333" d="M179-190L93 31C79 59 56 82 12 73V49c39 6 53-20 64-50L1-190h34L92-34l54-156h33" id="bm"/><g id="w"><use transform="matrix(0.0685185185185185,0,0,0.0685185185185185,0,0)" xlink:href="#aK"/><use transform="matrix(0.0685185185185185,0,0,0.0685185185185185,13.7037037037037,0)" xlink:href="#aG"/><use transform="matrix(0.0685185185185185,0,0,0.0685185185185185,27.4074074074074,0)" xlink:href="#bk"/><use transform="matrix(0.0685185185185185,0,0,0.0685185185185185,35.5611111111111,0)" xlink:href="#aM"/><use transform="matrix(0.0685185185185185,0,0,0.0685185185185185,42.41296296296295,0)" xlink:href="#bl"/><use transform="matrix(0.0685185185185185,0,0,0.0685185185185185,56.11666666666666,0)" xlink:href="#aJ"/><use transform="matrix(0.0685185185185185,0,0,0.0685185185185185,69.82037037037036,0)" xlink:href="#bk"/><use transform="matrix(0.0685185185185185,0,0,0.0685185185185185,77.97407407407405,0)" xlink:href="#bh"/><use transform="matrix(0.0685185185185185,0,0,0.0685185185185185,84.8259259259259,0)" xlink:href="#aE"/><use transform="matrix(0.0685185185185185,0,0,0.0685185185185185,90.23888888888887,0)" xlink:href="#bm"/><use transform="matrix(0.0685185185185185,0,0,0.0685185185185185,102.5722222222222,0)" xlink:href="#bk"/><use transform="matrix(0.0685185185185185,0,0,0.0685185185185185,110.72592592592589,0)" xlink:href="#aK"/><use transform="matrix(0.0685185185185185,0,0,0.0685185185185185,124.42962962962959,0)" xlink:href="#bi"/><use transform="matrix(0.0685185185185185,0,0,0.0685185185185185,138.1333333333333,0)" xlink:href="#aM"/><use transform="matrix(0.0685185185185185,0,0,0.0685185185185185,144.98518518518517,0)" xlink:href="#aD"/><use transform="matrix(0.0685185185185185,0,0,0.0685185185185185,158.68888888888884,0)" xlink:href="#bi"/><use transform="matrix(0.0685185185185185,0,0,0.0685185185185185,172.39259259259254,0)" xlink:href="#aM"/></g><g id="x"><use transform="matrix(0.0685185185185185,0,0,0.0685185185185185,0,0)" xlink:href="#aO"/><use transform="matrix(0.0685185185185185,0,0,0.0685185185185185,12.33333333333333,0)" xlink:href="#aK"/><use transform="matrix(0.0685185185185185,0,0,0.0685185185185185,26.03703703703703,0)" xlink:href="#aH"/><use transform="matrix(0.0685185185185185,0,0,0.0685185185185185,34.190740740740736,0)" xlink:href="#aH"/><use transform="matrix(0.0685185185185185,0,0,0.0685185185185185,42.344444444444434,0)" xlink:href="#aJ"/><use transform="matrix(0.0685185185185185,0,0,0.0685185185185185,56.04814814814814,0)" xlink:href="#aE"/><use transform="matrix(0.0685185185185185,0,0,0.0685185185185185,61.4611111111111,0)" xlink:href="#aF"/><use transform="matrix(0.0685185185185185,0,0,0.0685185185185185,75.1648148148148,0)" xlink:href="#aM"/><use transform="matrix(0.0685185185185185,0,0,0.0685185185185185,82.01666666666665,0)" xlink:href="#aN"/><use transform="matrix(0.0685185185185185,0,0,0.0685185185185185,87.42962962962962,0)" xlink:href="#aK"/><use transform="matrix(0.0685185185185185,0,0,0.0685185185185185,101.13333333333331,0)" xlink:href="#aG"/></g><g id="y"><use transform="matrix(0.0685185185185185,0,0,0.0685185185185185,0,0)" xlink:href="#aM"/><use transform="matrix(0.0685185185185185,0,0,0.0685185185185185,6.85185185185185,0)" xlink:href="#aN"/><use transform="matrix(0.0685185185185185,0,0,0.0685185185185185,12.264814814814812,0)" xlink:href="#aL"/><use transform="matrix(0.0685185185185185,0,0,0.0685185185185185,32.751851851851846,0)" xlink:href="#aJ"/></g><g id="z"><use transform="matrix(0.0685185185185185,0,0,0.0685185185185185,0,0)" xlink:href="#aJ"/><use transform="matrix(0.0685185185185185,0,0,0.0685185185185185,13.7037037037037,0)" xlink:href="#aP"/><use transform="matrix(0.0685185185185185,0,0,0.0685185185185185,26.03703703703703,0)" xlink:href="#aM"/><use transform="matrix(0.0685185185185185,0,0,0.0685185185185185,32.88888888888888,0)" xlink:href="#aN"/><use transform="matrix(0.0685185185185185,0,0,0.0685185185185185,38.30185185185184,0)" xlink:href="#aL"/><use transform="matrix(0.0685185185185185,0,0,0.0685185185185185,58.78888888888888,0)" xlink:href="#aF"/><use transform="matrix(0.0685185185185185,0,0,0.0685185185185185,72.49259259259259,0)" xlink:href="#aM"/><use transform="matrix(0.0685185185185185,0,0,0.0685185185185185,79.34444444444442,0)" xlink:href="#aJ"/></g><path fill="#333" d="M67-125c0 53 21 87 73 88 37 1 54-22 65-47l45 17C233-25 199 4 140 4 58 4 20-42 15-125 8-235 124-281 211-232c18 10 29 29 36 50l-46 12c-8-25-30-41-62-41-52 0-71 34-72 86" id="bn"/><g id="A"><use transform="matrix(0.06790123456790124,0,0,0.06790123456790124,0,0)" xlink:href="#bn"/><use transform="matrix(0.06790123456790124,0,0,0.06790123456790124,17.58641975308642,0)" xlink:href="#aX"/><use transform="matrix(0.06790123456790124,0,0,0.06790123456790124,31.16666666666667,0)" xlink:href="#av"/><use transform="matrix(0.06790123456790124,0,0,0.06790123456790124,37.9567901234568,0)" xlink:href="#aY"/><use transform="matrix(0.06790123456790124,0,0,0.06790123456790124,44.746913580246925,0)" xlink:href="#ax"/><use transform="matrix(0.06790123456790124,0,0,0.06790123456790124,59.6172839506173,0)" xlink:href="#bb"/><use transform="matrix(0.06790123456790124,0,0,0.06790123456790124,74.48765432098766,0)" xlink:href="#aB"/><use transform="matrix(0.06790123456790124,0,0,0.06790123456790124,88.06790123456793,0)" xlink:href="#ay"/><use transform="matrix(0.06790123456790124,0,0,0.06790123456790124,97.5740740740741,0)" xlink:href="#az"/><use transform="matrix(0.06790123456790124,0,0,0.06790123456790124,115.16049382716052,0)" xlink:href="#aw"/><use transform="matrix(0.06790123456790124,0,0,0.06790123456790124,128.74074074074076,0)" xlink:href="#aA"/><use transform="matrix(0.06790123456790124,0,0,0.06790123456790124,142.32098765432102,0)" xlink:href="#aB"/></g><use transform="matrix(0.06790123456790124,0,0,0.06790123456790124,0,0)" xlink:href="#aC" id="B"/><g id="C"><use transform="matrix(0.06790123456790124,0,0,0.06790123456790124,0,0)" xlink:href="#aO"/><use transform="matrix(0.06790123456790124,0,0,0.06790123456790124,12.222222222222223,0)" xlink:href="#aK"/><use transform="matrix(0.06790123456790124,0,0,0.06790123456790124,25.802469135802472,0)" xlink:href="#aK"/><use transform="matrix(0.06790123456790124,0,0,0.06790123456790124,39.38271604938272,0)" xlink:href="#aH"/><use transform="matrix(0.06790123456790124,0,0,0.06790123456790124,47.46296296296297,0)" xlink:href="#aR"/><use transform="matrix(0.06790123456790124,0,0,0.06790123456790124,61.043209876543216,0)" xlink:href="#aN"/><use transform="matrix(0.06790123456790124,0,0,0.06790123456790124,66.40740740740742,0)" xlink:href="#aG"/><use transform="matrix(0.06790123456790124,0,0,0.06790123456790124,79.98765432098767,0)" xlink:href="#aF"/><use transform="matrix(0.06790123456790124,0,0,0.06790123456790124,93.56790123456793,0)" xlink:href="#aM"/><use transform="matrix(0.06790123456790124,0,0,0.06790123456790124,100.35802469135805,0)" xlink:href="#aJ"/></g><g id="D"><use transform="matrix(0.06790123456790124,0,0,0.06790123456790124,0,0)" xlink:href="#aM"/><use transform="matrix(0.06790123456790124,0,0,0.06790123456790124,6.790123456790124,0)" xlink:href="#aH"/><use transform="matrix(0.06790123456790124,0,0,0.06790123456790124,14.870370370370374,0)" xlink:href="#aF"/><use transform="matrix(0.06790123456790124,0,0,0.06790123456790124,28.45061728395062,0)" xlink:href="#aG"/><use transform="matrix(0.06790123456790124,0,0,0.06790123456790124,42.03086419753087,0)" xlink:href="#aP"/><use transform="matrix(0.06790123456790124,0,0,0.06790123456790124,54.25308641975309,0)" xlink:href="#bh"/><use transform="matrix(0.06790123456790124,0,0,0.06790123456790124,61.043209876543216,0)" xlink:href="#aK"/><use transform="matrix(0.06790123456790124,0,0,0.06790123456790124,74.62345679012347,0)" xlink:href="#aH"/><use transform="matrix(0.06790123456790124,0,0,0.06790123456790124,82.70370370370371,0)" xlink:href="#aL"/><use transform="matrix(0.06790123456790124,0,0,0.06790123456790124,103.00617283950619,0)" xlink:href="#aF"/><use transform="matrix(0.06790123456790124,0,0,0.06790123456790124,116.58641975308645,0)" xlink:href="#aM"/><use transform="matrix(0.06790123456790124,0,0,0.06790123456790124,123.37654320987657,0)" xlink:href="#aN"/><use transform="matrix(0.06790123456790124,0,0,0.06790123456790124,128.74074074074076,0)" xlink:href="#aK"/><use transform="matrix(0.06790123456790124,0,0,0.06790123456790124,142.32098765432102,0)" xlink:href="#aG"/></g><g id="E"><use transform="matrix(0.06790123456790124,0,0,0.06790123456790124,0,0)" xlink:href="#aQ"/><use transform="matrix(0.06790123456790124,0,0,0.06790123456790124,8.080246913580249,0)" xlink:href="#aU"/><use transform="matrix(0.06790123456790124,0,0,0.06790123456790124,20.302469135802472,0)" xlink:href="#aS"/></g><g id="F"><use transform="matrix(0.06790123456790124,0,0,0.06790123456790124,0,0)" xlink:href="#bm"/><use transform="matrix(0.06790123456790124,0,0,0.06790123456790124,10.38888888888889,0)" xlink:href="#aS"/></g><path fill="#333" d="M9 0v-24l116-142H16v-24h144v24L44-24h123V0H9" id="bo"/><use transform="matrix(0.06790123456790124,0,0,0.06790123456790124,0,0)" xlink:href="#bo" id="G"/><path fill="#333" d="M18-27v-27l151-64-151-65v-27l175 74v36" id="bp"/><g id="H"><use transform="matrix(0.06790123456790124,0,0,0.06790123456790124,0,0)" xlink:href="#bk"/><use transform="matrix(0.06790123456790124,0,0,0.06790123456790124,8.080246913580249,0)" xlink:href="#bp"/></g><g id="I"><use transform="matrix(0.06790123456790124,0,0,0.06790123456790124,0,0)" xlink:href="#aH"/><use transform="matrix(0.06790123456790124,0,0,0.06790123456790124,6.722222222222223,0)" xlink:href="#aS"/></g><path fill="#333" d="M155-194c48 1 62 44 63 95 0 64-29 98-88 102v72h-29V3C-12 10-10-185 89-194l3 23c-48 6-55 95-31 131 8 12 22 18 40 19 4-71-20-175 54-173zM130-21c42-2 55-31 55-79-1-35-5-66-29-71-45 11-20 99-26 150" id="bq"/><g id="J"><use transform="matrix(0.06790123456790124,0,0,0.06790123456790124,0,0)" xlink:href="#bq"/><use transform="matrix(0.06790123456790124,0,0,0.06790123456790124,15.82098765432099,0)" xlink:href="#aS"/></g><g id="K"><use transform="matrix(0.06790123456790124,0,0,0.06790123456790124,0,0)" xlink:href="#bo"/><use transform="matrix(0.06790123456790124,0,0,0.06790123456790124,12.222222222222223,0)" xlink:href="#aV"/></g><g id="L"><use transform="matrix(0.06790123456790124,0,0,0.06790123456790124,0,0)" xlink:href="#aO"/><use transform="matrix(0.06790123456790124,0,0,0.06790123456790124,12.222222222222223,0)" xlink:href="#bm"/><use transform="matrix(0.06790123456790124,0,0,0.06790123456790124,24.444444444444446,0)" xlink:href="#aE"/><use transform="matrix(0.06790123456790124,0,0,0.06790123456790124,29.808641975308646,0)" xlink:href="#aN"/><use transform="matrix(0.06790123456790124,0,0,0.06790123456790124,35.17283950617284,0)" xlink:href="#aG"/><use transform="matrix(0.06790123456790124,0,0,0.06790123456790124,48.75308641975309,0)" xlink:href="#aR"/><use transform="matrix(0.06790123456790124,0,0,0.06790123456790124,62.333333333333336,0)" xlink:href="#aJ"/><use transform="matrix(0.06790123456790124,0,0,0.06790123456790124,75.91358024691358,0)" xlink:href="#aH"/></g><g id="M"><use transform="matrix(0.06790123456790124,0,0,0.06790123456790124,0,0)" xlink:href="#aL"/><use transform="matrix(0.06790123456790124,0,0,0.06790123456790124,20.302469135802472,0)" xlink:href="#aN"/><use transform="matrix(0.06790123456790124,0,0,0.06790123456790124,25.66666666666667,0)" xlink:href="#aG"/><use transform="matrix(0.06790123456790124,0,0,0.06790123456790124,39.24691358024692,0)" xlink:href="#aN"/><use transform="matrix(0.06790123456790124,0,0,0.06790123456790124,44.611111111111114,0)" xlink:href="#aL"/><use transform="matrix(0.06790123456790124,0,0,0.06790123456790124,64.91358024691358,0)" xlink:href="#aF"/><use transform="matrix(0.06790123456790124,0,0,0.06790123456790124,78.49382716049384,0)" xlink:href="#aE"/><use transform="matrix(0.06790123456790124,0,0,0.06790123456790124,83.85802469135804,0)" xlink:href="#aT"/><use transform="matrix(0.06790123456790124,0,0,0.06790123456790124,90.64814814814817,0)" xlink:href="#aL"/><use transform="matrix(0.06790123456790124,0,0,0.06790123456790124,110.95061728395063,0)" xlink:href="#aF"/><use transform="matrix(0.06790123456790124,0,0,0.06790123456790124,124.53086419753089,0)" xlink:href="#aU"/><use transform="matrix(0.06790123456790124,0,0,0.06790123456790124,136.75308641975312,0)" xlink:href="#aN"/><use transform="matrix(0.06790123456790124,0,0,0.06790123456790124,142.1172839506173,0)" xlink:href="#aL"/><use transform="matrix(0.06790123456790124,0,0,0.06790123456790124,162.4197530864198,0)" xlink:href="#aF"/><use transform="matrix(0.06790123456790124,0,0,0.06790123456790124,176.00000000000006,0)" xlink:href="#aE"/></g><g id="N"><use transform="matrix(0.06790123456790124,0,0,0.06790123456790124,0,0)" xlink:href="#aH"/><use transform="matrix(0.06790123456790124,0,0,0.06790123456790124,8.080246913580249,0)" xlink:href="#aF"/><use transform="matrix(0.06790123456790124,0,0,0.06790123456790124,21.660493827160497,0)" xlink:href="#aR"/><use transform="matrix(0.06790123456790124,0,0,0.06790123456790124,35.24074074074075,0)" xlink:href="#aN"/><use transform="matrix(0.06790123456790124,0,0,0.06790123456790124,40.604938271604944,0)" xlink:href="#aF"/><use transform="matrix(0.06790123456790124,0,0,0.06790123456790124,54.18518518518519,0)" xlink:href="#aE"/></g><path fill="#333" d="M169-182c-1-43-94-46-97-3 18 66 151 10 154 114 3 95-165 93-204 36-6-8-10-19-12-30l50-8c3 46 112 56 116 5-17-69-150-10-154-114-4-87 153-88 188-35 5 8 8 18 10 28" id="br"/><path fill="#333" d="M114-157C55-157 80-60 75 0H25v-261h50l-1 109c12-26 28-41 61-42 86-1 58 113 63 194h-50c-7-57 23-157-34-157" id="bs"/><g id="O"><use transform="matrix(0.0685185185185185,0,0,0.0685185185185185,0,0)" xlink:href="#br"/><use transform="matrix(0.0685185185185185,0,0,0.0685185185185185,16.444444444444443,0)" xlink:href="#ba"/><use transform="matrix(0.0685185185185185,0,0,0.0685185185185185,31.449999999999996,0)" xlink:href="#bs"/><use transform="matrix(0.0685185185185185,0,0,0.0685185185185185,46.45555555555555,0)" xlink:href="#aB"/><use transform="matrix(0.0685185185185185,0,0,0.0685185185185185,60.15925925925925,0)" xlink:href="#ay"/><use transform="matrix(0.0685185185185185,0,0,0.0685185185185185,69.75185185185184,0)" xlink:href="#aB"/><use transform="matrix(0.0685185185185185,0,0,0.0685185185185185,83.45555555555553,0)" xlink:href="#az"/><use transform="matrix(0.0685185185185185,0,0,0.0685185185185185,101.20185185185183,0)" xlink:href="#aw"/><use transform="matrix(0.0685185185185185,0,0,0.0685185185185185,114.90555555555552,0)" xlink:href="#aA"/><use transform="matrix(0.0685185185185185,0,0,0.0685185185185185,128.60925925925923,0)" xlink:href="#aB"/></g><g id="P"><use transform="matrix(0.06790123456790124,0,0,0.06790123456790124,0,0)" xlink:href="#aM"/><use transform="matrix(0.06790123456790124,0,0,0.06790123456790124,6.790123456790124,0)" xlink:href="#aH"/><use transform="matrix(0.06790123456790124,0,0,0.06790123456790124,14.870370370370374,0)" xlink:href="#aF"/><use transform="matrix(0.06790123456790124,0,0,0.06790123456790124,28.45061728395062,0)" xlink:href="#aG"/><use transform="matrix(0.06790123456790124,0,0,0.06790123456790124,42.03086419753087,0)" xlink:href="#aP"/><use transform="matrix(0.06790123456790124,0,0,0.06790123456790124,54.25308641975309,0)" xlink:href="#bh"/><use transform="matrix(0.06790123456790124,0,0,0.06790123456790124,61.043209876543216,0)" xlink:href="#aK"/><use transform="matrix(0.06790123456790124,0,0,0.06790123456790124,74.62345679012347,0)" xlink:href="#aH"/><use transform="matrix(0.06790123456790124,0,0,0.06790123456790124,82.70370370370371,0)" xlink:href="#aL"/><use transform="matrix(0.06790123456790124,0,0,0.06790123456790124,103.00617283950619,0)" xlink:href="#aF"/><use transform="matrix(0.06790123456790124,0,0,0.06790123456790124,116.58641975308645,0)" xlink:href="#aM"/><use transform="matrix(0.06790123456790124,0,0,0.06790123456790124,123.37654320987657,0)" xlink:href="#aN"/><use transform="matrix(0.06790123456790124,0,0,0.06790123456790124,128.74074074074076,0)" xlink:href="#aK"/><use transform="matrix(0.06790123456790124,0,0,0.06790123456790124,142.32098765432102,0)" xlink:href="#aG"/></g><g id="Q"><use transform="matrix(0.06790123456790124,0,0,0.06790123456790124,0,0)" xlink:href="#bo"/><use transform="matrix(0.06790123456790124,0,0,0.06790123456790124,12.222222222222223,0)" xlink:href="#bk"/><use transform="matrix(0.06790123456790124,0,0,0.06790123456790124,20.302469135802472,0)" xlink:href="#bp"/></g><path fill="#333" d="M119-250c-42 0-46 68-14 86 9 6 29 9 61 9 1-51-9-95-47-95zm-66 95c-2 63 6 133 57 133 42 0 57-53 56-103-78 2-112-16-114-84-1-38 27-69 67-67 63 3 82 66 82 140 1 77-27 140-92 140-71 0-90-69-89-159h33" id="bt"/><g id="R"><use transform="matrix(0.07037037037037036,0,0,0.07037037037037036,0,0)" xlink:href="#bt"/><use transform="matrix(0.06790123456790124,0,0,0.06790123456790124,15.62222222222222,0)" xlink:href="#aV"/></g><g id="S"><use transform="matrix(0.06790123456790124,0,0,0.06790123456790124,0,0)" xlink:href="#aP"/><use transform="matrix(0.06790123456790124,0,0,0.06790123456790124,12.222222222222223,0)" xlink:href="#aD"/><use transform="matrix(0.06790123456790124,0,0,0.06790123456790124,25.802469135802472,0)" xlink:href="#bl"/><use transform="matrix(0.06790123456790124,0,0,0.06790123456790124,39.38271604938272,0)" xlink:href="#aJ"/><use transform="matrix(0.06790123456790124,0,0,0.06790123456790124,52.96296296296297,0)" xlink:href="#aH"/><use transform="matrix(0.06790123456790124,0,0,0.06790123456790124,61.043209876543216,0)" xlink:href="#aJ"/></g><g id="T"><use transform="matrix(0.06790123456790124,0,0,0.06790123456790124,0,0)" xlink:href="#aP"/><use transform="matrix(0.06790123456790124,0,0,0.06790123456790124,12.222222222222223,0)" xlink:href="#aJ"/><use transform="matrix(0.06790123456790124,0,0,0.06790123456790124,25.802469135802472,0)" xlink:href="#aE"/><use transform="matrix(0.06790123456790124,0,0,0.06790123456790124,31.16666666666667,0)" xlink:href="#aJ"/><use transform="matrix(0.06790123456790124,0,0,0.06790123456790124,44.74691358024692,0)" xlink:href="#aO"/><use transform="matrix(0.06790123456790124,0,0,0.06790123456790124,56.96913580246914,0)" xlink:href="#aM"/><use transform="matrix(0.06790123456790124,0,0,0.06790123456790124,63.75925925925927,0)" xlink:href="#aN"/><use transform="matrix(0.06790123456790124,0,0,0.06790123456790124,69.12345679012347,0)" xlink:href="#aK"/><use transform="matrix(0.06790123456790124,0,0,0.06790123456790124,82.70370370370371,0)" xlink:href="#aG"/></g><g id="U"><use transform="matrix(0.06790123456790124,0,0,0.06790123456790124,0,0)" xlink:href="#aQ"/><use transform="matrix(0.06790123456790124,0,0,0.06790123456790124,8.080246913580249,0)" xlink:href="#aL"/><use transform="matrix(0.06790123456790124,0,0,0.06790123456790124,28.38271604938272,0)" xlink:href="#aN"/><use transform="matrix(0.06790123456790124,0,0,0.06790123456790124,33.74691358024692,0)" xlink:href="#aG"/><use transform="matrix(0.06790123456790124,0,0,0.06790123456790124,47.327160493827165,0)" xlink:href="#aN"/><use transform="matrix(0.06790123456790124,0,0,0.06790123456790124,52.69135802469136,0)" xlink:href="#aL"/><use transform="matrix(0.06790123456790124,0,0,0.06790123456790124,72.99382716049384,0)" xlink:href="#aF"/><use transform="matrix(0.06790123456790124,0,0,0.06790123456790124,86.57407407407409,0)" xlink:href="#aE"/><use transform="matrix(0.06790123456790124,0,0,0.06790123456790124,91.93827160493831,0)" xlink:href="#aT"/><use transform="matrix(0.06790123456790124,0,0,0.06790123456790124,98.72839506172842,0)" xlink:href="#aL"/><use transform="matrix(0.06790123456790124,0,0,0.06790123456790124,119.03086419753089,0)" xlink:href="#aF"/><use transform="matrix(0.06790123456790124,0,0,0.06790123456790124,132.61111111111114,0)" xlink:href="#aU"/><use transform="matrix(0.06790123456790124,0,0,0.06790123456790124,144.8333333333334,0)" xlink:href="#aN"/><use transform="matrix(0.06790123456790124,0,0,0.06790123456790124,150.19753086419757,0)" xlink:href="#aL"/><use transform="matrix(0.06790123456790124,0,0,0.06790123456790124,170.50000000000006,0)" xlink:href="#aF"/><use transform="matrix(0.06790123456790124,0,0,0.06790123456790124,184.0802469135803,0)" xlink:href="#aE"/></g><g id="V"><use transform="matrix(0.06790123456790124,0,0,0.06790123456790124,0,0)" xlink:href="#aP"/><use transform="matrix(0.06790123456790124,0,0,0.06790123456790124,12.222222222222223,0)" xlink:href="#aD"/><use transform="matrix(0.06790123456790124,0,0,0.06790123456790124,25.802469135802472,0)" xlink:href="#bl"/><use transform="matrix(0.06790123456790124,0,0,0.06790123456790124,39.38271604938272,0)" xlink:href="#aJ"/><use transform="matrix(0.06790123456790124,0,0,0.06790123456790124,52.96296296296297,0)" xlink:href="#aH"/><use transform="matrix(0.06790123456790124,0,0,0.06790123456790124,61.043209876543216,0)" xlink:href="#aN"/><use transform="matrix(0.06790123456790124,0,0,0.06790123456790124,66.40740740740742,0)" xlink:href="#aO"/><use transform="matrix(0.06790123456790124,0,0,0.06790123456790124,78.62962962962965,0)" xlink:href="#aF"/><use transform="matrix(0.06790123456790124,0,0,0.06790123456790124,92.2098765432099,0)" xlink:href="#aE"/></g><path fill="#333" d="M110-194c64 0 96 36 96 99 0 64-35 99-97 99-61 0-95-36-95-99 0-62 34-99 96-99zm-1 164c35 0 45-28 45-65 0-40-10-65-43-65-34 0-45 26-45 65 0 36 10 65 43 65" id="bu"/><path fill="#333" d="M121-226c-27-7-43 5-38 36h38v33H83V0H34v-157H6v-33h28c-9-59 32-81 87-68v32" id="bv"/><g id="W"><use transform="matrix(0.0685185185185185,0,0,0.0685185185185185,0,0)" xlink:href="#au"/><use transform="matrix(0.0685185185185185,0,0,0.0685185185185185,16.444444444444443,0)" xlink:href="#ay"/><use transform="matrix(0.0685185185185185,0,0,0.0685185185185185,26.037037037037038,0)" xlink:href="#bu"/><use transform="matrix(0.0685185185185185,0,0,0.0685185185185185,41.042592592592584,0)" xlink:href="#bv"/><use transform="matrix(0.0685185185185185,0,0,0.0685185185185185,49.19629629629628,0)" xlink:href="#aY"/><use transform="matrix(0.0685185185185185,0,0,0.0685185185185185,56.04814814814813,0)" xlink:href="#av"/><use transform="matrix(0.0685185185185185,0,0,0.0685185185185185,62.899999999999984,0)" xlink:href="#aB"/><use transform="matrix(0.0685185185185185,0,0,0.0685185185185185,76.60370370370367,0)" xlink:href="#au"/><use transform="matrix(0.0685185185185185,0,0,0.0685185185185185,93.04814814814812,0)" xlink:href="#av"/><use transform="matrix(0.0685185185185185,0,0,0.0685185185185185,99.89999999999996,0)" xlink:href="#aw"/><use transform="matrix(0.0685185185185185,0,0,0.0685185185185185,113.60370370370366,0)" xlink:href="#ax"/><use transform="matrix(0.0685185185185185,0,0,0.0685185185185185,128.6092592592592,0)" xlink:href="#aw"/><use transform="matrix(0.0685185185185185,0,0,0.0685185185185185,142.3129629629629,0)" xlink:href="#ay"/><use transform="matrix(0.0685185185185185,0,0,0.0685185185185185,151.90555555555548,0)" xlink:href="#az"/><use transform="matrix(0.0685185185185185,0,0,0.0685185185185185,169.65185185185175,0)" xlink:href="#aw"/><use transform="matrix(0.0685185185185185,0,0,0.0685185185185185,183.35555555555547,0)" xlink:href="#aA"/><use transform="matrix(0.0685185185185185,0,0,0.0685185185185185,197.05925925925916,0)" xlink:href="#aB"/></g><g id="X"><use transform="matrix(0.0685185185185185,0,0,0.0685185185185185,0,0)" xlink:href="#aD"/><use transform="matrix(0.0685185185185185,0,0,0.0685185185185185,13.7037037037037,0)" xlink:href="#aE"/><use transform="matrix(0.0685185185185185,0,0,0.0685185185185185,19.116666666666664,0)" xlink:href="#aF"/><use transform="matrix(0.0685185185185185,0,0,0.0685185185185185,32.82037037037036,0)" xlink:href="#aG"/><use transform="matrix(0.0685185185185185,0,0,0.0685185185185185,46.524074074074065,0)" xlink:href="#aF"/><use transform="matrix(0.0685185185185185,0,0,0.0685185185185185,60.22777777777777,0)" xlink:href="#aH"/></g><g id="Y"><use transform="matrix(0.0685185185185185,0,0,0.0685185185185185,0,0)" xlink:href="#bf"/><use transform="matrix(0.0685185185185185,0,0,0.0685185185185185,13.7037037037037,0)" xlink:href="#aN"/><use transform="matrix(0.0685185185185185,0,0,0.0685185185185185,19.116666666666664,0)" xlink:href="#aG"/><use transform="matrix(0.0685185185185185,0,0,0.0685185185185185,32.82037037037036,0)" xlink:href="#aG"/><use transform="matrix(0.0685185185185185,0,0,0.0685185185185185,46.524074074074065,0)" xlink:href="#aN"/><use transform="matrix(0.0685185185185185,0,0,0.0685185185185185,51.93703703703703,0)" xlink:href="#aG"/><use transform="matrix(0.0685185185185185,0,0,0.0685185185185185,65.64074074074072,0)" xlink:href="#aI"/></g><g id="Z"><use transform="matrix(0.0685185185185185,0,0,0.0685185185185185,0,0)" xlink:href="#bl"/><use transform="matrix(0.0685185185185185,0,0,0.0685185185185185,13.7037037037037,0)" xlink:href="#aN"/><use transform="matrix(0.0685185185185185,0,0,0.0685185185185185,19.116666666666664,0)" xlink:href="#aP"/><use transform="matrix(0.0685185185185185,0,0,0.0685185185185185,31.449999999999996,0)" xlink:href="#aM"/><use transform="matrix(0.0685185185185185,0,0,0.0685185185185185,38.30185185185184,0)" xlink:href="#aK"/><use transform="matrix(0.0685185185185185,0,0,0.0685185185185185,52.005555555555546,0)" xlink:href="#aI"/><use transform="matrix(0.0685185185185185,0,0,0.0685185185185185,65.70925925925924,0)" xlink:href="#aH"/><use transform="matrix(0.0685185185185185,0,0,0.0685185185185185,73.86296296296294,0)" xlink:href="#aF"/><use transform="matrix(0.0685185185185185,0,0,0.0685185185185185,87.56666666666663,0)" xlink:href="#aL"/><use transform="matrix(0.0685185185185185,0,0,0.0685185185185185,108.05370370370365,0)" xlink:href="#aL"/><use transform="matrix(0.0685185185185185,0,0,0.0685185185185185,128.5407407407407,0)" xlink:href="#aN"/><use transform="matrix(0.0685185185185185,0,0,0.0685185185185185,133.95370370370364,0)" xlink:href="#aG"/><use transform="matrix(0.0685185185185185,0,0,0.0685185185185185,147.6574074074073,0)" xlink:href="#aI"/></g><g id="aa"><use transform="matrix(0.0685185185185185,0,0,0.0685185185185185,0,0)" xlink:href="#bi"/><use transform="matrix(0.0685185185185185,0,0,0.0685185185185185,13.7037037037037,0)" xlink:href="#aP"/><use transform="matrix(0.0685185185185185,0,0,0.0685185185185185,26.03703703703703,0)" xlink:href="#aN"/><use transform="matrix(0.0685185185185185,0,0,0.0685185185185185,31.449999999999992,0)" xlink:href="#aG"/><use transform="matrix(0.0685185185185185,0,0,0.0685185185185185,45.15370370370369,0)" xlink:href="#aI"/></g><g id="ab"><use transform="matrix(0.0685185185185185,0,0,0.0685185185185185,0,0)" xlink:href="#bj"/><use transform="matrix(0.0685185185185185,0,0,0.0685185185185185,17.746296296296293,0)" xlink:href="#aJ"/><use transform="matrix(0.0685185185185185,0,0,0.0685185185185185,31.449999999999996,0)" xlink:href="#aN"/><use transform="matrix(0.0685185185185185,0,0,0.0685185185185185,36.86296296296297,0)" xlink:href="#aI"/><use transform="matrix(0.0685185185185185,0,0,0.0685185185185185,50.56666666666666,0)" xlink:href="#bl"/><use transform="matrix(0.0685185185185185,0,0,0.0685185185185185,64.27037037037036,0)" xlink:href="#aM"/></g><g id="ac"><use transform="matrix(0.0685185185185185,0,0,0.0685185185185185,0,0)" xlink:href="#bh"/><use transform="matrix(0.0685185185185185,0,0,0.0685185185185185,6.85185185185185,0)" xlink:href="#bi"/><use transform="matrix(0.0685185185185185,0,0,0.0685185185185185,20.555555555555554,0)" xlink:href="#aG"/><use transform="matrix(0.0685185185185185,0,0,0.0685185185185185,34.25925925925925,0)" xlink:href="#aO"/><use transform="matrix(0.0685185185185185,0,0,0.0685185185185185,46.59259259259258,0)" xlink:href="#aM"/><use transform="matrix(0.0685185185185185,0,0,0.0685185185185185,53.44444444444443,0)" xlink:href="#aN"/><use transform="matrix(0.0685185185185185,0,0,0.0685185185185185,58.8574074074074,0)" xlink:href="#aK"/><use transform="matrix(0.0685185185185185,0,0,0.0685185185185185,72.56111111111109,0)" xlink:href="#aG"/></g><g id="ad"><use transform="matrix(0.0685185185185185,0,0,0.0685185185185185,0,0)" xlink:href="#au"/><use transform="matrix(0.0685185185185185,0,0,0.0685185185185185,16.444444444444443,0)" xlink:href="#ay"/><use transform="matrix(0.0685185185185185,0,0,0.0685185185185185,26.037037037037038,0)" xlink:href="#bu"/><use transform="matrix(0.0685185185185185,0,0,0.0685185185185185,41.042592592592584,0)" xlink:href="#bv"/><use transform="matrix(0.0685185185185185,0,0,0.0685185185185185,49.19629629629628,0)" xlink:href="#aY"/><use transform="matrix(0.0685185185185185,0,0,0.0685185185185185,56.04814814814813,0)" xlink:href="#av"/><use transform="matrix(0.0685185185185185,0,0,0.0685185185185185,62.899999999999984,0)" xlink:href="#aB"/><use transform="matrix(0.0685185185185185,0,0,0.0685185185185185,76.60370370370367,0)" xlink:href="#bn"/><use transform="matrix(0.0685185185185185,0,0,0.0685185185185185,94.34999999999997,0)" xlink:href="#aX"/><use transform="matrix(0.0685185185185185,0,0,0.0685185185185185,108.05370370370365,0)" xlink:href="#av"/><use transform="matrix(0.0685185185185185,0,0,0.0685185185185185,114.90555555555551,0)" xlink:href="#aY"/><use transform="matrix(0.0685185185185185,0,0,0.0685185185185185,121.75740740740736,0)" xlink:href="#ax"/><use transform="matrix(0.0685185185185185,0,0,0.0685185185185185,136.76296296296292,0)" xlink:href="#bb"/><use transform="matrix(0.0685185185185185,0,0,0.0685185185185185,151.7685185185185,0)" xlink:href="#aB"/><use transform="matrix(0.0685185185185185,0,0,0.0685185185185185,165.47222222222217,0)" xlink:href="#ay"/><use transform="matrix(0.0685185185185185,0,0,0.0685185185185185,175.06481481481475,0)" xlink:href="#az"/><use transform="matrix(0.0685185185185185,0,0,0.0685185185185185,192.81111111111105,0)" xlink:href="#aw"/><use transform="matrix(0.0685185185185185,0,0,0.0685185185185185,206.51481481481474,0)" xlink:href="#aA"/><use transform="matrix(0.0685185185185185,0,0,0.0685185185185185,220.21851851851844,0)" xlink:href="#aB"/></g><g id="ae"><use transform="matrix(0.0685185185185185,0,0,0.0685185185185185,0,0)" xlink:href="#aO"/><use transform="matrix(0.0685185185185185,0,0,0.0685185185185185,12.33333333333333,0)" xlink:href="#bm"/><use transform="matrix(0.0685185185185185,0,0,0.0685185185185185,24.66666666666666,0)" xlink:href="#aE"/><use transform="matrix(0.0685185185185185,0,0,0.0685185185185185,30.079629629629622,0)" xlink:href="#aN"/><use transform="matrix(0.0685185185185185,0,0,0.0685185185185185,35.49259259259259,0)" xlink:href="#aG"/><use transform="matrix(0.0685185185185185,0,0,0.0685185185185185,49.19629629629629,0)" xlink:href="#aR"/><use transform="matrix(0.0685185185185185,0,0,0.0685185185185185,62.89999999999999,0)" xlink:href="#aH"/><use transform="matrix(0.0685185185185185,0,0,0.0685185185185185,71.05370370370369,0)" xlink:href="#aN"/><use transform="matrix(0.0685185185185185,0,0,0.0685185185185185,76.46666666666665,0)" xlink:href="#aO"/><use transform="matrix(0.0685185185185185,0,0,0.0685185185185185,88.79999999999998,0)" xlink:href="#aF"/><use transform="matrix(0.0685185185185185,0,0,0.0685185185185185,102.50370370370369,0)" xlink:href="#aE"/></g><g id="af"><use transform="matrix(0.0685185185185185,0,0,0.0685185185185185,0,0)" xlink:href="#au"/><use transform="matrix(0.0685185185185185,0,0,0.0685185185185185,16.444444444444443,0)" xlink:href="#ay"/><use transform="matrix(0.0685185185185185,0,0,0.0685185185185185,26.037037037037038,0)" xlink:href="#bu"/><use transform="matrix(0.0685185185185185,0,0,0.0685185185185185,41.042592592592584,0)" xlink:href="#bv"/><use transform="matrix(0.0685185185185185,0,0,0.0685185185185185,49.19629629629628,0)" xlink:href="#aY"/><use transform="matrix(0.0685185185185185,0,0,0.0685185185185185,56.04814814814813,0)" xlink:href="#av"/><use transform="matrix(0.0685185185185185,0,0,0.0685185185185185,62.899999999999984,0)" xlink:href="#aB"/><use transform="matrix(0.0685185185185185,0,0,0.0685185185185185,76.60370370370367,0)" xlink:href="#br"/><use transform="matrix(0.0685185185185185,0,0,0.0685185185185185,93.04814814814812,0)" xlink:href="#ba"/><use transform="matrix(0.0685185185185185,0,0,0.0685185185185185,108.05370370370365,0)" xlink:href="#bs"/><use transform="matrix(0.0685185185185185,0,0,0.0685185185185185,123.05925925925922,0)" xlink:href="#aB"/><use transform="matrix(0.0685185185185185,0,0,0.0685185185185185,136.76296296296292,0)" xlink:href="#ay"/><use transform="matrix(0.0685185185185185,0,0,0.0685185185185185,146.3555555555555,0)" xlink:href="#aB"/><use transform="matrix(0.0685185185185185,0,0,0.0685185185185185,160.0592592592592,0)" xlink:href="#az"/><use transform="matrix(0.0685185185185185,0,0,0.0685185185185185,177.8055555555555,0)" xlink:href="#aw"/><use transform="matrix(0.0685185185185185,0,0,0.0685185185185185,191.50925925925918,0)" xlink:href="#aA"/><use transform="matrix(0.0685185185185185,0,0,0.0685185185185185,205.21296296296288,0)" xlink:href="#aB"/></g><g id="ag"><use transform="matrix(0.0685185185185185,0,0,0.0685185185185185,0,0)" xlink:href="#aP"/><use transform="matrix(0.0685185185185185,0,0,0.0685185185185185,12.33333333333333,0)" xlink:href="#aD"/><use transform="matrix(0.0685185185185185,0,0,0.0685185185185185,26.03703703703703,0)" xlink:href="#bl"/><use transform="matrix(0.0685185185185185,0,0,0.0685185185185185,39.74074074074073,0)" xlink:href="#aJ"/><use transform="matrix(0.0685185185185185,0,0,0.0685185185185185,53.444444444444436,0)" xlink:href="#aH"/><use transform="matrix(0.0685185185185185,0,0,0.0685185185185185,61.598148148148134,0)" xlink:href="#aN"/><use transform="matrix(0.0685185185185185,0,0,0.0685185185185185,67.0111111111111,0)" xlink:href="#aO"/><use transform="matrix(0.0685185185185185,0,0,0.0685185185185185,79.34444444444443,0)" xlink:href="#aF"/><use transform="matrix(0.0685185185185185,0,0,0.0685185185185185,93.04814814814813,0)" xlink:href="#aE"/></g><path d="M25 0v-261h50V0H25" id="bw"/><path d="M25-224v-37h50v37H25zM25 0v-190h50V0H25" id="bx"/><path d="M135-194c52 0 70 43 70 98 0 56-19 99-73 100-30 1-46-15-58-35L72 0H24l1-261h50v104c11-23 29-37 60-37zM114-30c31 0 40-27 40-66 0-37-7-63-39-63s-41 28-41 65c0 36 8 64 40 64" id="by"/><path d="M24 0v-54h51V0H24" id="bz"/><path d="M231 0h-52l-39-155L100 0H48L-1-190h46L77-45c9-52 24-97 36-145h53l37 145 32-145h46" id="bA"/><path d="M185-48c-13 30-37 53-82 52C43 2 14-33 14-96s30-98 90-98c62 0 83 45 84 108H66c0 31 8 55 39 56 18 0 30-7 34-22zm-45-69c5-46-57-63-70-21-2 6-4 13-4 21h74" id="bB"/><path d="M195-6C206 82 75 100 31 46c-4-6-6-13-8-21l49-6c3 16 16 24 34 25 40 0 42-37 40-79-11 22-30 35-61 35-53 0-70-43-70-97 0-56 18-96 73-97 30 0 46 14 59 34l2-30h47zm-90-29c32 0 41-27 41-63 0-35-9-62-40-62-32 0-39 29-40 63 0 36 9 62 39 62" id="bC"/><path d="M114-157C55-157 80-60 75 0H25v-261h50l-1 109c12-26 28-41 61-42 86-1 58 113 63 194h-50c-7-57 23-157-34-157" id="bD"/><path d="M115-3C79 11 28 4 28-45v-112H4v-33h27l15-45h31v45h36v33H77v99c-1 23 16 31 38 25v30" id="bE"/><path d="M137-138c1-29-70-34-71-4 15 46 118 7 119 86 1 83-164 76-172 9l43-7c4 19 20 25 44 25 33 8 57-30 24-41C81-84 22-81 20-136c-2-80 154-74 161-7" id="bF"/><g id="ah"><use transform="matrix(0.0685185185185185,0,0,0.0685185185185185,0,0)" xlink:href="#bw"/><use transform="matrix(0.0685185185185185,0,0,0.0685185185185185,6.85185185185185,0)" xlink:href="#bx"/><use transform="matrix(0.0685185185185185,0,0,0.0685185185185185,13.7037037037037,0)" xlink:href="#by"/><use transform="matrix(0.0685185185185185,0,0,0.0685185185185185,28.709259259259255,0)" xlink:href="#bz"/><use transform="matrix(0.0685185185185185,0,0,0.0685185185185185,35.5611111111111,0)" xlink:href="#bA"/><use transform="matrix(0.0685185185185185,0,0,0.0685185185185185,54.746296296296286,0)" xlink:href="#bB"/><use transform="matrix(0.0685185185185185,0,0,0.0685185185185185,68.44999999999999,0)" xlink:href="#bx"/><use transform="matrix(0.0685185185185185,0,0,0.0685185185185185,75.30185185185184,0)" xlink:href="#bC"/><use transform="matrix(0.0685185185185185,0,0,0.0685185185185185,90.3074074074074,0)" xlink:href="#bD"/><use transform="matrix(0.0685185185185185,0,0,0.0685185185185185,105.31296296296296,0)" xlink:href="#bE"/><use transform="matrix(0.0685185185185185,0,0,0.0685185185185185,113.46666666666664,0)" xlink:href="#bF"/></g><path fill="#333" d="M266 0h-40l-56-210L115 0H75L2-248h35L96-30l15-64 43-154h32l59 218 59-218h35" id="bG"/><g id="ai"><use transform="matrix(0.0685185185185185,0,0,0.0685185185185185,0,0)" xlink:href="#bG"/><use transform="matrix(0.0685185185185185,0,0,0.0685185185185185,22.748148148148143,0)" xlink:href="#aJ"/><use transform="matrix(0.0685185185185185,0,0,0.0685185185185185,36.45185185185184,0)" xlink:href="#aN"/><use transform="matrix(0.0685185185185185,0,0,0.0685185185185185,41.86481481481481,0)" xlink:href="#aI"/><use transform="matrix(0.0685185185185185,0,0,0.0685185185185185,55.56851851851851,0)" xlink:href="#bl"/><use transform="matrix(0.0685185185185185,0,0,0.0685185185185185,69.27222222222221,0)" xlink:href="#aM"/></g><g id="aj"><use transform="matrix(0.0685185185185185,0,0,0.0685185185185185,0,0)" xlink:href="#bh"/><use transform="matrix(0.0685185185185185,0,0,0.0685185185185185,6.85185185185185,0)" xlink:href="#bi"/><use transform="matrix(0.0685185185185185,0,0,0.0685185185185185,20.555555555555554,0)" xlink:href="#aG"/><use transform="matrix(0.0685185185185185,0,0,0.0685185185185185,34.25925925925925,0)" xlink:href="#aO"/><use transform="matrix(0.0685185185185185,0,0,0.0685185185185185,46.59259259259258,0)" xlink:href="#aM"/><use transform="matrix(0.0685185185185185,0,0,0.0685185185185185,53.44444444444443,0)" xlink:href="#aN"/><use transform="matrix(0.0685185185185185,0,0,0.0685185185185185,58.8574074074074,0)" xlink:href="#aK"/><use transform="matrix(0.0685185185185185,0,0,0.0685185185185185,72.56111111111109,0)" xlink:href="#aG"/><use transform="matrix(0.0685185185185185,0,0,0.0685185185185185,86.26481481481478,0)" xlink:href="#aP"/></g><g id="ak"><use transform="matrix(0.0685185185185185,0,0,0.0685185185185185,0,0)" xlink:href="#bh"/><use transform="matrix(0.0685185185185185,0,0,0.0685185185185185,6.85185185185185,0)" xlink:href="#aK"/><use transform="matrix(0.0685185185185185,0,0,0.0685185185185185,20.555555555555554,0)" xlink:href="#aH"/></g><g id="al"><use transform="matrix(0.0685185185185185,0,0,0.0685185185185185,0,0)" xlink:href="#aP"/><use transform="matrix(0.0685185185185185,0,0,0.0685185185185185,12.33333333333333,0)" xlink:href="#aD"/><use transform="matrix(0.0685185185185185,0,0,0.0685185185185185,26.03703703703703,0)" xlink:href="#aF"/><use transform="matrix(0.0685185185185185,0,0,0.0685185185185185,39.74074074074073,0)" xlink:href="#aM"/><use transform="matrix(0.0685185185185185,0,0,0.0685185185185185,46.59259259259258,0)" xlink:href="#aN"/><use transform="matrix(0.0685185185185185,0,0,0.0685185185185185,52.005555555555546,0)" xlink:href="#aF"/><use transform="matrix(0.0685185185185185,0,0,0.0685185185185185,65.70925925925924,0)" xlink:href="#aE"/></g><g id="am"><use transform="matrix(0.0685185185185185,0,0,0.0685185185185185,0,0)" xlink:href="#bl"/><use transform="matrix(0.0685185185185185,0,0,0.0685185185185185,13.7037037037037,0)" xlink:href="#aN"/><use transform="matrix(0.0685185185185185,0,0,0.0685185185185185,19.116666666666664,0)" xlink:href="#aP"/><use transform="matrix(0.0685185185185185,0,0,0.0685185185185185,31.449999999999996,0)" xlink:href="#aM"/><use transform="matrix(0.0685185185185185,0,0,0.0685185185185185,38.30185185185184,0)" xlink:href="#aK"/><use transform="matrix(0.0685185185185185,0,0,0.0685185185185185,52.005555555555546,0)" xlink:href="#aI"/><use transform="matrix(0.0685185185185185,0,0,0.0685185185185185,65.70925925925924,0)" xlink:href="#aH"/><use transform="matrix(0.0685185185185185,0,0,0.0685185185185185,73.86296296296294,0)" xlink:href="#aF"/><use transform="matrix(0.0685185185185185,0,0,0.0685185185185185,87.56666666666663,0)" xlink:href="#aL"/><use transform="matrix(0.0685185185185185,0,0,0.0685185185185185,108.05370370370365,0)" xlink:href="#aL"/><use transform="matrix(0.0685185185185185,0,0,0.0685185185185185,128.5407407407407,0)" xlink:href="#aP"/></g><path d="M220-157c-53 9-28 100-34 157h-49v-107c1-27-5-49-29-50C55-147 81-57 75 0H25l-1-190h47c2 12-1 28 3 38 10-53 101-56 108 0 13-22 24-43 59-42 82 1 51 116 57 194h-49v-107c-1-25-5-48-29-50" id="bH"/><path d="M133-34C117-15 103 5 69 4 32 3 11-16 11-54c-1-60 55-63 116-61 1-26-3-47-28-47-18 1-26 9-28 27l-52-2c7-38 36-58 82-57s74 22 75 68l1 82c-1 14 12 18 25 15v27c-30 8-71 5-69-32zm-48 3c29 0 43-24 42-57-32 0-66-3-65 30 0 17 8 27 23 27" id="bI"/><g id="an"><use transform="matrix(0.0685185185185185,0,0,0.0685185185185185,0,0)" xlink:href="#bw"/><use transform="matrix(0.0685185185185185,0,0,0.0685185185185185,6.85185185185185,0)" xlink:href="#bx"/><use transform="matrix(0.0685185185185185,0,0,0.0685185185185185,13.7037037037037,0)" xlink:href="#by"/><use transform="matrix(0.0685185185185185,0,0,0.0685185185185185,28.709259259259255,0)" xlink:href="#bz"/><use transform="matrix(0.0685185185185185,0,0,0.0685185185185185,35.5611111111111,0)" xlink:href="#bH"/><use transform="matrix(0.0685185185185185,0,0,0.0685185185185185,57.48703703703703,0)" xlink:href="#bI"/><use transform="matrix(0.0685185185185185,0,0,0.0685185185185185,71.19074074074072,0)" xlink:href="#bE"/><use transform="matrix(0.0685185185185185,0,0,0.0685185185185185,79.34444444444442,0)" xlink:href="#bD"/></g><path fill="#333" d="M197 0v-115H63V0H30v-248h33v105h134v-105h34V0h-34" id="bJ"/><g id="ao"><use transform="matrix(0.0685185185185185,0,0,0.0685185185185185,0,0)" xlink:href="#bJ"/><use transform="matrix(0.0685185185185185,0,0,0.0685185185185185,17.746296296296293,0)" xlink:href="#aJ"/><use transform="matrix(0.0685185185185185,0,0,0.0685185185185185,31.449999999999996,0)" xlink:href="#aE"/><use transform="matrix(0.0685185185185185,0,0,0.0685185185185185,36.86296296296297,0)" xlink:href="#aD"/><use transform="matrix(0.0685185185185185,0,0,0.0685185185185185,50.56666666666666,0)" xlink:href="#aJ"/><use transform="matrix(0.0685185185185185,0,0,0.0685185185185185,64.27037037037036,0)" xlink:href="#aH"/></g><g id="ap"><use transform="matrix(0.0685185185185185,0,0,0.0685185185185185,0,0)" xlink:href="#bh"/><use transform="matrix(0.0685185185185185,0,0,0.0685185185185185,6.85185185185185,0)" xlink:href="#aK"/><use transform="matrix(0.0685185185185185,0,0,0.0685185185185185,20.555555555555554,0)" xlink:href="#aH"/></g><g id="aq"><use transform="matrix(0.0685185185185185,0,0,0.0685185185185185,0,0)" xlink:href="#aL"/><use transform="matrix(0.0685185185185185,0,0,0.0685185185185185,20.487037037037034,0)" xlink:href="#aF"/><use transform="matrix(0.0685185185185185,0,0,0.0685185185185185,34.190740740740736,0)" xlink:href="#aM"/><use transform="matrix(0.0685185185185185,0,0,0.0685185185185185,41.042592592592584,0)" xlink:href="#bl"/><use transform="matrix(0.0685185185185185,0,0,0.0685185185185185,54.746296296296286,0)" xlink:href="#aJ"/><use transform="matrix(0.0685185185185185,0,0,0.0685185185185185,68.44999999999999,0)" xlink:href="#aL"/><use transform="matrix(0.0685185185185185,0,0,0.0685185185185185,88.93703703703702,0)" xlink:href="#aF"/><use transform="matrix(0.0685185185185185,0,0,0.0685185185185185,102.64074074074071,0)" xlink:href="#aM"/><use transform="matrix(0.0685185185185185,0,0,0.0685185185185185,109.49259259259256,0)" xlink:href="#aN"/><use transform="matrix(0.0685185185185185,0,0,0.0685185185185185,114.90555555555552,0)" xlink:href="#aO"/><use transform="matrix(0.0685185185185185,0,0,0.0685185185185185,127.23888888888885,0)" xlink:href="#aF"/><use transform="matrix(0.0685185185185185,0,0,0.0685185185185185,140.94259259259255,0)" xlink:href="#aE"/></g><g id="ar"><use transform="matrix(0.0685185185185185,0,0,0.0685185185185185,0,0)" xlink:href="#aF"/><use transform="matrix(0.0685185185185185,0,0,0.0685185185185185,13.7037037037037,0)" xlink:href="#aG"/><use transform="matrix(0.0685185185185185,0,0,0.0685185185185185,27.4074074074074,0)" xlink:href="#aR"/></g><g id="as"><use transform="matrix(0.0685185185185185,0,0,0.0685185185185185,0,0)" xlink:href="#aD"/><use transform="matrix(0.0685185185185185,0,0,0.0685185185185185,13.7037037037037,0)" xlink:href="#bl"/><use transform="matrix(0.0685185185185185,0,0,0.0685185185185185,27.4074074074074,0)" xlink:href="#bm"/><use transform="matrix(0.0685185185185185,0,0,0.0685185185185185,39.74074074074073,0)" xlink:href="#aP"/><use transform="matrix(0.0685185185185185,0,0,0.0685185185185185,52.07407407407406,0)" xlink:href="#aN"/><use transform="matrix(0.0685185185185185,0,0,0.0685185185185185,57.48703703703703,0)" xlink:href="#aO"/><use transform="matrix(0.0685185185185185,0,0,0.0685185185185185,69.82037037037036,0)" xlink:href="#aF"/><use transform="matrix(0.0685185185185185,0,0,0.0685185185185185,83.52407407407405,0)" xlink:href="#aE"/></g><g id="at"><use transform="matrix(0.0685185185185185,0,0,0.0685185185185185,0,0)" xlink:href="#aK"/><use transform="matrix(0.0685185185185185,0,0,0.0685185185185185,13.7037037037037,0)" xlink:href="#aD"/><use transform="matrix(0.0685185185185185,0,0,0.0685185185185185,27.4074074074074,0)" xlink:href="#aJ"/><use transform="matrix(0.0685185185185185,0,0,0.0685185185185185,41.11111111111111,0)" xlink:href="#aH"/><use transform="matrix(0.0685185185185185,0,0,0.0685185185185185,49.2648148148148,0)" xlink:href="#aF"/><use transform="matrix(0.0685185185185185,0,0,0.0685185185185185,62.9685185185185,0)" xlink:href="#aM"/><use transform="matrix(0.0685185185185185,0,0,0.0685185185185185,69.82037037037036,0)" xlink:href="#aN"/><use transform="matrix(0.0685185185185185,0,0,0.0685185185185185,75.23333333333332,0)" xlink:href="#aK"/><use transform="matrix(0.0685185185185185,0,0,0.0685185185185185,88.93703703703702,0)" xlink:href="#aG"/><use transform="matrix(0.0685185185185185,0,0,0.0685185185185185,102.64074074074071,0)" xlink:href="#aP"/></g></defs></g></svg>